<svg xmlns="http://www.w3.org/2000/svg" xmlns:xlink="http://www.w3.org/1999/xlink" width="1080" zoomAndPan="magnify" viewBox="0 0 810 809.999993" height="1080" preserveAspectRatio="xMidYMid meet" version="1.0"><defs><g/></defs><rect x="-81" width="972" fill="#ffffff" y="-80.999999" height="971.999992" fill-opacity="0"/><rect x="-81" width="972" fill="#ffffff" y="-80.999999" height="971.999992" fill-opacity="0"/><g fill="#eae2d3" fill-opacity="1"><g transform="translate(13.327151, 428.693523)"><g><path d="M 36.46875 -33.6875 C 36.363281 -30.820312 36.320312 -27.972656 36.34375 -25.140625 C 36.375 -22.316406 36.316406 -19.472656 36.171875 -16.609375 C 36.171875 -14.359375 36.207031 -12.09375 36.28125 -9.8125 C 36.351562 -7.53125 36.316406 -5.257812 36.171875 -3 C 36.066406 -1.5 35.765625 -0.632812 35.265625 -0.40625 C 34.765625 -0.1875 33.785156 -0.078125 32.328125 -0.078125 C 31.378906 -0.0234375 30.441406 0 29.515625 0 C 28.585938 0 27.644531 -0.0234375 26.6875 -0.078125 C 24.632812 -0.171875 22.691406 -0.28125 20.859375 -0.40625 C 19.035156 -0.53125 17.144531 -1.019531 15.1875 -1.875 C 13.082031 -2.832031 11.335938 -4.160156 9.953125 -5.859375 C 8.578125 -7.566406 7.414062 -9.445312 6.46875 -11.5 C 5.164062 -14.3125 4.222656 -17.359375 3.640625 -20.640625 C 3.066406 -23.921875 2.753906 -27.226562 2.703125 -30.5625 C 2.648438 -33.894531 2.75 -37.09375 3 -40.15625 C 3.351562 -44.707031 3.804688 -49.238281 4.359375 -53.75 C 4.910156 -58.269531 5.835938 -62.734375 7.140625 -67.140625 C 7.691406 -68.992188 8.394531 -70.984375 9.25 -73.109375 C 10.101562 -75.242188 11.15625 -77.265625 12.40625 -79.171875 C 13.65625 -81.078125 15.128906 -82.628906 16.828125 -83.828125 C 18.535156 -85.035156 20.546875 -85.640625 22.859375 -85.640625 C 25.515625 -85.585938 27.679688 -84.984375 29.359375 -83.828125 C 31.035156 -82.679688 32.335938 -81.15625 33.265625 -79.25 C 34.191406 -77.34375 34.832031 -75.257812 35.1875 -73 C 35.539062 -70.75 35.742188 -68.546875 35.796875 -66.390625 C 35.835938 -65.691406 35.921875 -64.789062 36.046875 -63.6875 C 36.171875 -62.582031 36.234375 -61.460938 36.234375 -60.328125 C 36.234375 -59.203125 36.070312 -58.226562 35.75 -57.40625 C 35.425781 -56.582031 34.835938 -56.046875 33.984375 -55.796875 C 33.078125 -55.535156 31.9375 -55.429688 30.5625 -55.484375 C 29.1875 -55.535156 28.046875 -55.613281 27.140625 -55.71875 C 26.191406 -55.863281 25.539062 -56.070312 25.1875 -56.34375 C 24.832031 -56.625 24.582031 -57.265625 24.4375 -58.265625 C 24.28125 -59.523438 24.273438 -60.878906 24.421875 -62.328125 C 24.578125 -63.785156 24.707031 -65.238281 24.8125 -66.6875 C 24.914062 -68.144531 24.738281 -69.472656 24.28125 -70.671875 C 23.882812 -71.828125 23.457031 -72.441406 23 -72.515625 C 22.550781 -72.585938 22.101562 -72.335938 21.65625 -71.765625 C 21.207031 -71.191406 20.789062 -70.460938 20.40625 -69.578125 C 20.03125 -68.703125 19.726562 -67.863281 19.5 -67.0625 C 19.28125 -66.257812 19.144531 -65.734375 19.09375 -65.484375 C 18.644531 -63.023438 18.359375 -60.457031 18.234375 -57.78125 C 18.109375 -55.101562 18.519531 -52.582031 19.46875 -50.21875 C 20.21875 -48.519531 21.242188 -47.359375 22.546875 -46.734375 C 23.859375 -46.109375 25.316406 -45.769531 26.921875 -45.71875 C 28.523438 -45.664062 30.128906 -45.640625 31.734375 -45.640625 C 32.929688 -45.691406 33.941406 -45.640625 34.765625 -45.484375 C 35.597656 -45.335938 36.191406 -44.585938 36.546875 -43.234375 C 36.847656 -41.878906 36.921875 -40.300781 36.765625 -38.5 C 36.617188 -36.695312 36.519531 -35.09375 36.46875 -33.6875 Z M 36.46875 -33.6875 "/></g></g></g><g fill="#eae2d3" fill-opacity="1"><g transform="translate(52.794389, 428.693523)"><g><path d="M 24.65625 -26.46875 C 24.65625 -26.46875 24.632812 -26.46875 24.59375 -26.46875 C 24.6875 -29.320312 24.71875 -32.175781 24.6875 -35.03125 C 24.664062 -37.894531 24.65625 -40.78125 24.65625 -43.6875 C 24.65625 -44.789062 24.726562 -46.101562 24.875 -47.625 C 25.03125 -49.15625 24.9375 -50.445312 24.59375 -51.5 C 24.382812 -52.050781 23.976562 -52.476562 23.375 -52.78125 C 22.78125 -53.082031 22.128906 -53.21875 21.421875 -53.1875 C 20.722656 -53.164062 20.175781 -52.929688 19.78125 -52.484375 C 19.375 -52.078125 19.15625 -51.375 19.125 -50.375 C 19.101562 -49.375 19.140625 -48.347656 19.234375 -47.296875 C 19.335938 -46.242188 19.390625 -45.441406 19.390625 -44.890625 C 19.390625 -43.234375 19.390625 -41.578125 19.390625 -39.921875 C 19.390625 -38.265625 19.390625 -36.585938 19.390625 -34.890625 C 19.390625 -31.828125 19.390625 -28.742188 19.390625 -25.640625 C 19.390625 -22.535156 19.390625 -19.453125 19.390625 -16.390625 C 19.390625 -14.929688 19.351562 -13.5 19.28125 -12.09375 C 19.207031 -10.695312 19.171875 -9.296875 19.171875 -7.890625 C 19.171875 -7.242188 19.207031 -6.414062 19.28125 -5.40625 C 19.351562 -4.40625 19.335938 -3.441406 19.234375 -2.515625 C 19.140625 -1.585938 18.769531 -0.898438 18.125 -0.453125 C 17.664062 -0.0976562 17.035156 0.078125 16.234375 0.078125 C 15.429688 0.078125 14.601562 0.03125 13.75 -0.0625 C 12.90625 -0.164062 12.207031 -0.21875 11.65625 -0.21875 C 10.945312 -0.21875 10.117188 -0.164062 9.171875 -0.0625 C 8.222656 0.03125 7.269531 0.078125 6.3125 0.078125 C 5.363281 0.078125 4.585938 -0.0976562 3.984375 -0.453125 C 3.328125 -0.804688 2.9375 -1.332031 2.8125 -2.03125 C 2.6875 -2.726562 2.675781 -3.460938 2.78125 -4.234375 C 2.882812 -5.015625 2.9375 -5.734375 2.9375 -6.390625 C 2.9375 -7.597656 2.910156 -8.8125 2.859375 -10.03125 C 2.804688 -11.257812 2.804688 -12.476562 2.859375 -13.6875 C 2.859375 -15.894531 2.84375 -18.085938 2.8125 -20.265625 C 2.789062 -22.441406 2.753906 -24.632812 2.703125 -26.84375 C 2.648438 -29.445312 2.695312 -32.039062 2.84375 -34.625 C 3 -37.207031 3.003906 -39.800781 2.859375 -42.40625 C 2.660156 -45.257812 2.660156 -48.128906 2.859375 -51.015625 C 3.054688 -53.898438 3.054688 -56.742188 2.859375 -59.546875 C 2.660156 -62.003906 2.632812 -64.457031 2.78125 -66.90625 C 2.925781 -69.363281 2.976562 -71.796875 2.9375 -74.203125 C 2.9375 -75.515625 2.9375 -76.804688 2.9375 -78.078125 C 2.9375 -79.359375 2.9375 -80.625 2.9375 -81.875 C 2.976562 -83.332031 3.097656 -84.335938 3.296875 -84.890625 C 3.503906 -85.441406 4.359375 -85.71875 5.859375 -85.71875 C 7.160156 -85.757812 8.460938 -85.769531 9.765625 -85.75 C 11.078125 -85.726562 12.359375 -85.71875 13.609375 -85.71875 C 14.160156 -85.71875 14.820312 -85.726562 15.59375 -85.75 C 16.375 -85.769531 17.113281 -85.707031 17.8125 -85.5625 C 18.519531 -85.414062 19.046875 -85.066406 19.390625 -84.515625 C 19.847656 -83.765625 19.972656 -82.722656 19.765625 -81.390625 C 19.566406 -80.054688 19.46875 -78.941406 19.46875 -78.046875 C 19.414062 -76.835938 19.398438 -75.609375 19.421875 -74.359375 C 19.453125 -73.109375 19.46875 -71.851562 19.46875 -70.59375 C 19.414062 -69.59375 19.378906 -68.640625 19.359375 -67.734375 C 19.335938 -66.835938 19.851562 -66.238281 20.90625 -65.9375 C 22.40625 -65.488281 23.40625 -65.601562 23.90625 -66.28125 C 24.40625 -66.957031 24.65625 -67.921875 24.65625 -69.171875 C 24.65625 -70.472656 24.65625 -71.785156 24.65625 -73.109375 C 24.65625 -74.441406 24.65625 -75.785156 24.65625 -77.140625 C 24.65625 -77.796875 24.601562 -78.648438 24.5 -79.703125 C 24.40625 -80.753906 24.394531 -81.78125 24.46875 -82.78125 C 24.550781 -83.78125 24.890625 -84.53125 25.484375 -85.03125 C 25.984375 -85.488281 26.660156 -85.738281 27.515625 -85.78125 C 28.367188 -85.832031 29.242188 -85.796875 30.140625 -85.671875 C 31.046875 -85.546875 31.800781 -85.484375 32.40625 -85.484375 C 33.207031 -85.429688 34.160156 -85.476562 35.265625 -85.625 C 36.367188 -85.78125 37.445312 -85.84375 38.5 -85.8125 C 39.550781 -85.789062 40.378906 -85.457031 40.984375 -84.8125 C 41.484375 -84.257812 41.769531 -83.519531 41.84375 -82.59375 C 41.914062 -81.664062 41.890625 -80.710938 41.765625 -79.734375 C 41.640625 -78.753906 41.550781 -77.914062 41.5 -77.21875 C 41.40625 -75.664062 41.359375 -74.125 41.359375 -72.59375 C 41.359375 -71.0625 41.359375 -69.519531 41.359375 -67.96875 C 41.359375 -60.945312 41.367188 -53.914062 41.390625 -46.875 C 41.410156 -39.832031 41.398438 -32.804688 41.359375 -25.796875 C 41.109375 -24.335938 41.046875 -22.804688 41.171875 -21.203125 C 41.296875 -19.597656 41.359375 -18.066406 41.359375 -16.609375 C 41.359375 -15.160156 41.316406 -13.734375 41.234375 -12.328125 C 41.160156 -10.921875 41.125 -9.519531 41.125 -8.125 C 41.125 -7.519531 41.171875 -6.738281 41.265625 -5.78125 C 41.367188 -4.832031 41.421875 -3.90625 41.421875 -3 C 41.421875 -2.101562 41.25 -1.40625 40.90625 -0.90625 C 40.550781 -0.445312 39.910156 -0.179688 38.984375 -0.109375 C 38.054688 -0.0351562 37.09375 -0.0351562 36.09375 -0.109375 C 35.09375 -0.179688 34.335938 -0.21875 33.828125 -0.21875 C 33.128906 -0.21875 32.28125 -0.164062 31.28125 -0.0625 C 30.28125 0.03125 29.316406 0.078125 28.390625 0.078125 C 27.460938 0.078125 26.671875 -0.0976562 26.015625 -0.453125 C 25.265625 -0.804688 24.8125 -1.394531 24.65625 -2.21875 C 24.507812 -3.039062 24.472656 -3.914062 24.546875 -4.84375 C 24.617188 -5.769531 24.65625 -6.613281 24.65625 -7.375 C 24.65625 -10.53125 24.65625 -13.695312 24.65625 -16.875 C 24.65625 -20.0625 24.65625 -23.257812 24.65625 -26.46875 Z M 24.65625 -26.46875 "/></g></g></g><g fill="#eae2d3" fill-opacity="1"><g transform="translate(97.2984, 428.693523)"><g><path d="M 41.65625 -3.390625 C 41.851562 -1.785156 41.640625 -0.851562 41.015625 -0.59375 C 40.390625 -0.34375 39.300781 -0.21875 37.75 -0.21875 C 36.695312 -0.375 35.628906 -0.425781 34.546875 -0.375 C 33.472656 -0.320312 32.410156 -0.269531 31.359375 -0.21875 C 30.753906 -0.21875 29.960938 -0.179688 28.984375 -0.109375 C 28.003906 -0.0351562 27.265625 -0.25 26.765625 -0.75 C 26.316406 -1.101562 26.050781 -1.691406 25.96875 -2.515625 C 25.894531 -3.347656 25.882812 -4.203125 25.9375 -5.078125 C 25.988281 -5.953125 25.960938 -6.640625 25.859375 -7.140625 C 25.765625 -8.242188 25.640625 -9.359375 25.484375 -10.484375 C 25.335938 -11.617188 25.210938 -12.757812 25.109375 -13.90625 C 25.054688 -14.65625 25.054688 -15.582031 25.109375 -16.6875 C 25.160156 -17.789062 25.160156 -18.90625 25.109375 -20.03125 C 25.054688 -21.164062 24.84375 -22.15625 24.46875 -23 C 24.09375 -23.851562 23.429688 -24.40625 22.484375 -24.65625 C 22.078125 -24.8125 21.457031 -24.898438 20.625 -24.921875 C 19.800781 -24.953125 19 -24.90625 18.21875 -24.78125 C 17.445312 -24.65625 16.890625 -24.390625 16.546875 -23.984375 C 16.191406 -23.535156 15.988281 -22.882812 15.9375 -22.03125 C 15.882812 -21.175781 15.867188 -20.296875 15.890625 -19.390625 C 15.921875 -18.492188 15.910156 -17.769531 15.859375 -17.21875 C 15.609375 -14.914062 15.304688 -12.609375 14.953125 -10.296875 C 14.609375 -7.992188 14.3125 -5.691406 14.0625 -3.390625 C 13.957031 -2.429688 13.828125 -1.660156 13.671875 -1.078125 C 13.523438 -0.503906 13.003906 -0.117188 12.109375 0.078125 C 11.648438 0.171875 11.132812 0.164062 10.5625 0.0625 C 9.988281 -0.03125 9.472656 -0.078125 9.015625 -0.078125 C 8.316406 -0.078125 7.503906 -0.00390625 6.578125 0.140625 C 5.648438 0.296875 4.882812 0.273438 4.28125 0.078125 C 3.476562 -0.171875 3 -0.484375 2.84375 -0.859375 C 2.695312 -1.234375 2.675781 -1.847656 2.78125 -2.703125 C 2.882812 -3.910156 3.035156 -5.085938 3.234375 -6.234375 C 3.429688 -7.390625 3.582031 -8.570312 3.6875 -9.78125 C 3.988281 -12.332031 4.265625 -14.882812 4.515625 -17.4375 C 4.765625 -20 5.0625 -22.554688 5.40625 -25.109375 C 6.71875 -34.179688 7.972656 -43.265625 9.171875 -52.359375 C 10.378906 -61.460938 11.554688 -70.550781 12.703125 -79.625 C 12.804688 -80.175781 12.84375 -80.960938 12.8125 -81.984375 C 12.789062 -83.015625 12.984375 -83.78125 13.390625 -84.28125 C 13.785156 -84.78125 14.367188 -85.066406 15.140625 -85.140625 C 15.921875 -85.222656 16.722656 -85.210938 17.546875 -85.109375 C 18.378906 -85.015625 19.070312 -84.941406 19.625 -84.890625 C 20.675781 -84.835938 22.015625 -84.921875 23.640625 -85.140625 C 25.273438 -85.367188 26.867188 -85.492188 28.421875 -85.515625 C 29.972656 -85.546875 31.226562 -85.234375 32.1875 -84.578125 C 32.726562 -84.128906 33.050781 -83.453125 33.15625 -82.546875 C 33.257812 -81.648438 33.335938 -80.875 33.390625 -80.21875 C 33.535156 -78.914062 33.65625 -77.597656 33.75 -76.265625 C 33.851562 -74.941406 33.984375 -73.628906 34.140625 -72.328125 C 34.441406 -69.921875 34.703125 -67.515625 34.921875 -65.109375 C 35.148438 -62.703125 35.390625 -60.296875 35.640625 -57.890625 C 36.285156 -52.578125 36.832031 -47.25 37.28125 -41.90625 C 37.738281 -36.570312 38.316406 -31.273438 39.015625 -26.015625 C 39.367188 -23.359375 39.707031 -20.710938 40.03125 -18.078125 C 40.363281 -15.453125 40.679688 -12.8125 40.984375 -10.15625 C 41.128906 -9 41.238281 -7.867188 41.3125 -6.765625 C 41.382812 -5.660156 41.5 -4.535156 41.65625 -3.390625 Z M 19.171875 -47.296875 C 19.421875 -46.640625 19.804688 -46.25 20.328125 -46.125 C 20.859375 -46 21.347656 -46.097656 21.796875 -46.421875 C 22.253906 -46.753906 22.484375 -47.269531 22.484375 -47.96875 C 22.484375 -47.96875 22.457031 -47.96875 22.40625 -47.96875 C 22.300781 -49.46875 22.210938 -50.984375 22.140625 -52.515625 C 22.066406 -54.046875 21.976562 -55.585938 21.875 -57.140625 C 21.726562 -58.796875 21.539062 -59.722656 21.3125 -59.921875 C 21.09375 -60.117188 20.878906 -59.84375 20.671875 -59.09375 C 20.472656 -58.34375 20.347656 -57.390625 20.296875 -56.234375 C 20.242188 -55.484375 20.191406 -54.742188 20.140625 -54.015625 C 20.097656 -53.296875 20 -52.554688 19.84375 -51.796875 C 19.75 -51.203125 19.5625 -50.441406 19.28125 -49.515625 C 19.007812 -48.585938 18.972656 -47.847656 19.171875 -47.296875 Z M 19.171875 -47.296875 "/></g></g></g><g fill="#eae2d3" fill-opacity="1"><g transform="translate(141.727234, 428.693523)"><g><path d="M 27 -2.40625 C 24.882812 -1.40625 22.722656 -0.890625 20.515625 -0.859375 C 18.316406 -0.835938 16.085938 -0.828125 13.828125 -0.828125 C 12.578125 -0.828125 11.328125 -0.8125 10.078125 -0.78125 C 8.828125 -0.757812 7.597656 -0.773438 6.390625 -0.828125 C 5.191406 -0.929688 4.425781 -1.171875 4.09375 -1.546875 C 3.769531 -1.921875 3.609375 -2.707031 3.609375 -3.90625 C 3.609375 -6.414062 3.632812 -8.882812 3.6875 -11.3125 C 3.738281 -13.75 3.710938 -16.21875 3.609375 -18.71875 C 3.554688 -20.769531 3.515625 -22.859375 3.484375 -24.984375 C 3.460938 -27.117188 3.503906 -29.21875 3.609375 -31.28125 C 3.660156 -32.53125 3.707031 -33.78125 3.75 -35.03125 C 3.800781 -36.289062 3.828125 -37.546875 3.828125 -38.796875 C 3.828125 -39.347656 3.773438 -40.148438 3.671875 -41.203125 C 3.578125 -42.253906 3.554688 -43.289062 3.609375 -44.3125 C 3.660156 -45.34375 3.910156 -46.0625 4.359375 -46.46875 C 4.960938 -46.96875 5.765625 -47.175781 6.765625 -47.09375 C 7.765625 -47.019531 8.78125 -46.910156 9.8125 -46.765625 C 10.84375 -46.617188 11.757812 -46.691406 12.5625 -46.984375 C 13.363281 -47.285156 13.863281 -48.039062 14.0625 -49.25 C 14.257812 -50.25 14.03125 -51.273438 13.375 -52.328125 C 12.726562 -53.378906 11.914062 -54.40625 10.9375 -55.40625 C 9.957031 -56.414062 8.976562 -57.367188 8 -58.265625 C 7.03125 -59.171875 6.296875 -59.972656 5.796875 -60.671875 C 4.484375 -62.429688 3.585938 -64.410156 3.109375 -66.609375 C 2.640625 -68.816406 2.566406 -71.046875 2.890625 -73.296875 C 3.222656 -75.554688 3.953125 -77.648438 5.078125 -79.578125 C 6.203125 -81.515625 7.71875 -83.082031 9.625 -84.28125 C 12.082031 -85.832031 14.773438 -86.734375 17.703125 -86.984375 C 20.640625 -87.242188 23.421875 -86.78125 26.046875 -85.59375 C 28.679688 -84.414062 30.75 -82.5 32.25 -79.84375 C 33.457031 -77.738281 34.296875 -75.570312 34.765625 -73.34375 C 35.242188 -71.113281 35.5625 -68.796875 35.71875 -66.390625 C 35.769531 -65.585938 35.804688 -64.796875 35.828125 -64.015625 C 35.847656 -63.242188 35.507812 -62.582031 34.8125 -62.03125 C 34.257812 -61.675781 33.441406 -61.5 32.359375 -61.5 C 31.285156 -61.5 30.207031 -61.5625 29.125 -61.6875 C 28.050781 -61.8125 27.210938 -61.898438 26.609375 -61.953125 C 25.304688 -62.148438 24.46875 -62.613281 24.09375 -63.34375 C 23.71875 -64.070312 23.554688 -64.9375 23.609375 -65.9375 C 23.660156 -66.9375 23.695312 -67.988281 23.71875 -69.09375 C 23.75 -70.195312 23.535156 -71.226562 23.078125 -72.1875 C 22.628906 -73.1875 21.941406 -73.910156 21.015625 -74.359375 C 20.085938 -74.804688 19.125 -74.609375 18.125 -73.765625 C 17.320312 -73.054688 16.859375 -72.175781 16.734375 -71.125 C 16.609375 -70.070312 16.59375 -69.046875 16.6875 -68.046875 C 16.789062 -66.035156 17.351562 -64.253906 18.375 -62.703125 C 19.40625 -61.148438 20.671875 -59.722656 22.171875 -58.421875 C 23.679688 -57.117188 25.257812 -55.835938 26.90625 -54.578125 C 28.5625 -53.328125 30.09375 -52.015625 31.5 -50.640625 C 32.90625 -49.265625 33.984375 -47.722656 34.734375 -46.015625 C 36.085938 -43.054688 37.050781 -39.757812 37.625 -36.125 C 38.207031 -32.488281 38.375 -28.84375 38.125 -25.1875 C 37.875 -21.53125 37.222656 -18.171875 36.171875 -15.109375 C 35.316406 -12.648438 34.1875 -10.21875 32.78125 -7.8125 C 31.375 -5.40625 29.445312 -3.601562 27 -2.40625 Z M 27 -2.40625 "/></g></g></g><g fill="#eae2d3" fill-opacity="1"><g transform="translate(182.62282, 428.693523)"><g><path d="M 9.328125 -86.09375 C 10.378906 -86.09375 11.441406 -86.09375 12.515625 -86.09375 C 13.597656 -86.09375 14.664062 -86.09375 15.71875 -86.09375 C 17.414062 -86.09375 19.289062 -86.175781 21.34375 -86.34375 C 23.40625 -86.519531 25.238281 -86.410156 26.84375 -86.015625 C 27.894531 -85.710938 28.570312 -85.046875 28.875 -84.015625 C 29.175781 -82.992188 29.273438 -81.84375 29.171875 -80.5625 C 29.066406 -79.28125 28.992188 -78.191406 28.953125 -77.296875 C 28.898438 -75.890625 28.582031 -74.957031 28 -74.5 C 27.425781 -74.050781 26.675781 -73.828125 25.75 -73.828125 C 24.820312 -73.828125 23.78125 -73.828125 22.625 -73.828125 C 22.125 -73.828125 21.535156 -73.835938 20.859375 -73.859375 C 20.179688 -73.890625 19.644531 -73.707031 19.25 -73.3125 C 18.894531 -72.957031 18.691406 -72.289062 18.640625 -71.3125 C 18.597656 -70.332031 18.703125 -69.617188 18.953125 -69.171875 C 19.347656 -68.515625 19.910156 -68.132812 20.640625 -68.03125 C 21.367188 -67.9375 22.15625 -67.953125 23 -68.078125 C 23.851562 -68.203125 24.679688 -68.300781 25.484375 -68.375 C 26.285156 -68.457031 26.960938 -68.347656 27.515625 -68.046875 C 28.316406 -67.640625 28.816406 -66.875 29.015625 -65.75 C 29.222656 -64.625 29.273438 -63.429688 29.171875 -62.171875 C 29.066406 -60.921875 28.96875 -59.945312 28.875 -59.25 C 28.675781 -58.039062 28.1875 -57.296875 27.40625 -57.015625 C 26.625 -56.742188 25.734375 -56.644531 24.734375 -56.71875 C 23.734375 -56.800781 22.753906 -56.84375 21.796875 -56.84375 C 20.703125 -56.789062 19.960938 -56.640625 19.578125 -56.390625 C 19.203125 -56.140625 18.941406 -55.488281 18.796875 -54.4375 C 18.691406 -53.582031 18.613281 -52.59375 18.5625 -51.46875 C 18.519531 -50.34375 18.597656 -49.351562 18.796875 -48.5 C 18.992188 -47.539062 19.46875 -46.9375 20.21875 -46.6875 C 20.976562 -46.4375 21.820312 -46.347656 22.75 -46.421875 C 23.675781 -46.503906 24.539062 -46.519531 25.34375 -46.46875 C 26.894531 -46.414062 27.882812 -45.972656 28.3125 -45.140625 C 28.738281 -44.316406 28.898438 -43.289062 28.796875 -42.0625 C 28.691406 -40.832031 28.640625 -39.644531 28.640625 -38.5 C 28.640625 -34.332031 28.640625 -30.179688 28.640625 -26.046875 C 28.640625 -21.910156 28.640625 -17.765625 28.640625 -13.609375 C 28.640625 -12.554688 28.703125 -11.363281 28.828125 -10.03125 C 28.953125 -8.707031 29.015625 -7.394531 29.015625 -6.09375 C 29.015625 -4.789062 28.84375 -3.632812 28.5 -2.625 C 28.195312 -1.625 27.582031 -1.007812 26.65625 -0.78125 C 25.726562 -0.5625 24.710938 -0.515625 23.609375 -0.640625 C 22.503906 -0.765625 21.523438 -0.828125 20.671875 -0.828125 C 19.066406 -0.878906 17.460938 -0.84375 15.859375 -0.71875 C 14.253906 -0.59375 12.648438 -0.53125 11.046875 -0.53125 C 10.296875 -0.53125 9.34375 -0.515625 8.1875 -0.484375 C 7.039062 -0.460938 5.960938 -0.578125 4.953125 -0.828125 C 3.953125 -1.078125 3.328125 -1.628906 3.078125 -2.484375 C 2.734375 -3.429688 2.597656 -4.546875 2.671875 -5.828125 C 2.742188 -7.109375 2.851562 -8.398438 3 -9.703125 C 3.15625 -11.003906 3.234375 -12.15625 3.234375 -13.15625 C 3.128906 -15.363281 3.050781 -17.546875 3 -19.703125 C 2.957031 -21.859375 2.9375 -24.015625 2.9375 -26.171875 C 2.9375 -30.984375 2.9375 -35.789062 2.9375 -40.59375 C 2.9375 -45.40625 2.9375 -50.21875 2.9375 -55.03125 C 3.238281 -56.59375 3.347656 -58.285156 3.265625 -60.109375 C 3.191406 -61.941406 3.179688 -63.660156 3.234375 -65.265625 C 3.234375 -67.421875 3.234375 -69.578125 3.234375 -71.734375 C 3.234375 -73.890625 3.234375 -76.039062 3.234375 -78.1875 C 3.234375 -78.789062 3.171875 -79.617188 3.046875 -80.671875 C 2.921875 -81.722656 2.878906 -82.75 2.921875 -83.75 C 2.972656 -84.757812 3.273438 -85.460938 3.828125 -85.859375 C 4.128906 -86.109375 4.644531 -86.234375 5.375 -86.234375 C 6.101562 -86.234375 6.84375 -86.207031 7.59375 -86.15625 C 8.34375 -86.113281 8.921875 -86.09375 9.328125 -86.09375 Z M 9.328125 -86.09375 "/></g></g></g><g fill="#eae2d3" fill-opacity="1"><g transform="translate(214.497315, 428.693523)"><g/></g></g><g fill="#eae2d3" fill-opacity="1"><g transform="translate(240.13224, 428.693523)"><g><path d="M 12.78125 -7.515625 C 12.78125 -10.367188 12.78125 -13.238281 12.78125 -16.125 C 12.78125 -19.007812 12.78125 -21.878906 12.78125 -24.734375 C 12.78125 -27.992188 12.828125 -31.265625 12.921875 -34.546875 C 13.023438 -37.828125 12.960938 -41.097656 12.734375 -44.359375 C 12.515625 -47.617188 11.976562 -50.828125 11.125 -53.984375 C 10.070312 -57.796875 9.019531 -61.628906 7.96875 -65.484375 C 6.914062 -69.347656 5.789062 -73.179688 4.59375 -76.984375 C 4.332031 -77.835938 3.9375 -78.941406 3.40625 -80.296875 C 2.882812 -81.648438 2.648438 -82.78125 2.703125 -83.6875 C 2.753906 -84.832031 3.144531 -85.457031 3.875 -85.5625 C 4.601562 -85.664062 5.441406 -85.71875 6.390625 -85.71875 C 7.140625 -85.71875 8.101562 -85.78125 9.28125 -85.90625 C 10.457031 -86.03125 11.6875 -86.101562 12.96875 -86.125 C 14.25 -86.15625 15.398438 -86.03125 16.421875 -85.75 C 17.453125 -85.476562 18.191406 -84.960938 18.640625 -84.203125 C 19.046875 -83.503906 19.285156 -82.675781 19.359375 -81.71875 C 19.429688 -80.769531 19.519531 -79.921875 19.625 -79.171875 C 19.769531 -78.117188 19.96875 -77.113281 20.21875 -76.15625 C 20.46875 -75.207031 20.722656 -74.234375 20.984375 -73.234375 C 21.234375 -72.179688 21.46875 -71.128906 21.6875 -70.078125 C 21.914062 -69.023438 22.101562 -67.972656 22.25 -66.921875 C 22.40625 -65.816406 22.644531 -65.1875 22.96875 -65.03125 C 23.289062 -64.882812 23.601562 -65.460938 23.90625 -66.765625 C 24.40625 -68.867188 24.914062 -70.984375 25.4375 -73.109375 C 25.96875 -75.242188 26.4375 -77.363281 26.84375 -79.46875 C 26.988281 -80.175781 27.085938 -80.90625 27.140625 -81.65625 C 27.191406 -82.40625 27.367188 -83.109375 27.671875 -83.765625 C 28.222656 -85.015625 28.960938 -85.648438 29.890625 -85.671875 C 30.816406 -85.703125 31.878906 -85.71875 33.078125 -85.71875 C 33.734375 -85.71875 34.472656 -85.765625 35.296875 -85.859375 C 36.128906 -85.960938 36.945312 -85.988281 37.75 -85.9375 C 38.550781 -85.882812 39.1875 -85.671875 39.65625 -85.296875 C 40.132812 -84.921875 40.320312 -84.285156 40.21875 -83.390625 C 40.175781 -82.585938 39.941406 -81.734375 39.515625 -80.828125 C 39.085938 -79.921875 38.75 -79.039062 38.5 -78.1875 C 38.144531 -77.039062 37.78125 -75.890625 37.40625 -74.734375 C 37.03125 -73.578125 36.664062 -72.398438 36.3125 -71.203125 C 35.757812 -69.453125 35.179688 -67.671875 34.578125 -65.859375 C 33.984375 -64.054688 33.457031 -62.28125 33 -60.53125 C 32.40625 -58.269531 31.707031 -55.984375 30.90625 -53.671875 C 30.101562 -51.367188 29.472656 -49.09375 29.015625 -46.84375 C 28.671875 -44.9375 28.5625 -42.878906 28.6875 -40.671875 C 28.8125 -38.472656 28.875 -36.394531 28.875 -34.4375 C 28.875 -31.925781 28.882812 -29.429688 28.90625 -26.953125 C 28.9375 -24.472656 28.953125 -21.976562 28.953125 -19.46875 C 28.953125 -16.8125 28.953125 -14.128906 28.953125 -11.421875 C 28.953125 -8.722656 28.925781 -6.046875 28.875 -3.390625 C 28.875 -2.234375 28.707031 -1.363281 28.375 -0.78125 C 28.050781 -0.207031 27.265625 0.125 26.015625 0.21875 C 24.859375 0.269531 23.675781 0.257812 22.46875 0.1875 C 21.269531 0.113281 20.097656 0.078125 18.953125 0.078125 C 18.347656 0.078125 17.628906 0.113281 16.796875 0.1875 C 15.972656 0.257812 15.195312 0.21875 14.46875 0.0625 C 13.75 -0.0820312 13.210938 -0.453125 12.859375 -1.046875 C 12.503906 -1.847656 12.398438 -2.910156 12.546875 -4.234375 C 12.703125 -5.566406 12.78125 -6.660156 12.78125 -7.515625 Z M 12.78125 -7.515625 "/></g></g></g><g fill="#eae2d3" fill-opacity="1"><g transform="translate(283.057561, 428.693523)"><g><path d="M 34.140625 -77.296875 C 36.140625 -72.578125 37.613281 -67.585938 38.5625 -62.328125 C 39.519531 -57.066406 40.132812 -51.738281 40.40625 -46.34375 C 40.6875 -40.957031 40.828125 -35.734375 40.828125 -30.671875 C 40.828125 -28.222656 40.722656 -25.628906 40.515625 -22.890625 C 40.316406 -20.160156 39.914062 -17.503906 39.3125 -14.921875 C 38.71875 -12.335938 37.804688 -9.976562 36.578125 -7.84375 C 35.347656 -5.71875 33.71875 -3.953125 31.6875 -2.546875 C 29.65625 -1.148438 27.085938 -0.300781 23.984375 0 C 20.828125 0.300781 17.78125 -0.171875 14.84375 -1.421875 C 11.914062 -2.679688 9.523438 -4.640625 7.671875 -7.296875 C 6.316406 -9.242188 5.3125 -11.382812 4.65625 -13.71875 C 4.007812 -16.050781 3.570312 -18.429688 3.34375 -20.859375 C 3.113281 -23.296875 2.925781 -25.664062 2.78125 -27.96875 C 2.582031 -31.375 2.644531 -34.769531 2.96875 -38.15625 C 3.289062 -41.539062 3.628906 -44.9375 3.984375 -48.34375 C 4.335938 -51.851562 4.863281 -55.410156 5.5625 -59.015625 C 6.257812 -62.628906 7.160156 -66.140625 8.265625 -69.546875 C 8.765625 -71.003906 9.273438 -72.597656 9.796875 -74.328125 C 10.328125 -76.054688 10.984375 -77.757812 11.765625 -79.4375 C 12.546875 -81.113281 13.5 -82.601562 14.625 -83.90625 C 15.75 -85.207031 17.113281 -86.109375 18.71875 -86.609375 C 21.226562 -87.460938 23.472656 -87.523438 25.453125 -86.796875 C 27.429688 -86.078125 29.144531 -84.851562 30.59375 -83.125 C 32.050781 -81.394531 33.234375 -79.453125 34.140625 -77.296875 Z M 22.1875 -73.453125 C 21.332031 -73.609375 20.613281 -73.285156 20.03125 -72.484375 C 19.457031 -71.679688 19.007812 -70.628906 18.6875 -69.328125 C 18.363281 -68.023438 18.125 -66.65625 17.96875 -65.21875 C 17.820312 -63.789062 17.734375 -62.5 17.703125 -61.34375 C 17.679688 -60.195312 17.671875 -59.398438 17.671875 -58.953125 C 17.671875 -58.097656 17.71875 -57.03125 17.8125 -55.75 C 17.914062 -54.46875 18.15625 -53.238281 18.53125 -52.0625 C 18.90625 -50.882812 19.503906 -50.007812 20.328125 -49.4375 C 21.160156 -48.863281 22.28125 -48.875 23.6875 -49.46875 C 24.738281 -49.875 25.488281 -50.550781 25.9375 -51.5 C 26.382812 -52.457031 26.660156 -53.523438 26.765625 -54.703125 C 26.867188 -55.878906 26.878906 -57.054688 26.796875 -58.234375 C 26.722656 -59.410156 26.660156 -60.453125 26.609375 -61.359375 C 26.566406 -62.054688 26.492188 -63.03125 26.390625 -64.28125 C 26.285156 -65.539062 26.09375 -66.84375 25.8125 -68.1875 C 25.539062 -69.539062 25.117188 -70.71875 24.546875 -71.71875 C 23.972656 -72.726562 23.1875 -73.304688 22.1875 -73.453125 Z M 22.1875 -73.453125 "/></g></g></g><g fill="#eae2d3" fill-opacity="1"><g transform="translate(326.509128, 428.693523)"><g><path d="M 4.203125 -15.34375 C 3.453125 -19.351562 2.988281 -23.410156 2.8125 -27.515625 C 2.644531 -31.628906 2.609375 -35.765625 2.703125 -39.921875 C 2.804688 -44.085938 2.859375 -48.175781 2.859375 -52.1875 C 2.859375 -55.09375 2.859375 -57.972656 2.859375 -60.828125 C 2.859375 -63.679688 2.859375 -66.535156 2.859375 -69.390625 C 2.859375 -70.703125 2.878906 -71.984375 2.921875 -73.234375 C 2.972656 -74.484375 3 -75.757812 3 -77.0625 C 3 -78.070312 2.9375 -79.273438 2.8125 -80.671875 C 2.6875 -82.078125 2.75 -83.253906 3 -84.203125 C 3.207031 -85.003906 3.75 -85.53125 4.625 -85.78125 C 5.5 -86.039062 6.507812 -86.15625 7.65625 -86.125 C 8.8125 -86.101562 9.925781 -86.03125 11 -85.90625 C 12.082031 -85.78125 12.953125 -85.71875 13.609375 -85.71875 C 14.210938 -85.71875 14.890625 -85.753906 15.640625 -85.828125 C 16.390625 -85.898438 17.078125 -85.859375 17.703125 -85.703125 C 18.328125 -85.554688 18.789062 -85.132812 19.09375 -84.4375 C 19.394531 -83.78125 19.519531 -82.953125 19.46875 -81.953125 C 19.414062 -80.953125 19.328125 -79.945312 19.203125 -78.9375 C 19.078125 -77.9375 19.015625 -77.0625 19.015625 -76.3125 C 19.015625 -73.757812 18.988281 -71.191406 18.9375 -68.609375 C 18.894531 -66.023438 18.898438 -63.429688 18.953125 -60.828125 C 18.992188 -60.171875 18.941406 -59.191406 18.796875 -57.890625 C 18.648438 -56.585938 18.5625 -55.207031 18.53125 -53.75 C 18.507812 -52.300781 18.632812 -51.007812 18.90625 -49.875 C 19.1875 -48.75 19.726562 -48.0625 20.53125 -47.8125 C 21.726562 -47.414062 22.601562 -47.566406 23.15625 -48.265625 C 23.707031 -48.972656 24.054688 -49.953125 24.203125 -51.203125 C 24.359375 -52.453125 24.394531 -53.675781 24.3125 -54.875 C 24.238281 -56.082031 24.203125 -56.988281 24.203125 -57.59375 C 24.203125 -60.351562 24.226562 -63.097656 24.28125 -65.828125 C 24.332031 -68.554688 24.304688 -71.300781 24.203125 -74.0625 C 24.203125 -75.207031 24.238281 -76.359375 24.3125 -77.515625 C 24.394531 -78.671875 24.4375 -79.828125 24.4375 -80.984375 C 24.4375 -81.523438 24.375 -82.296875 24.25 -83.296875 C 24.125 -84.304688 24.335938 -85.0625 24.890625 -85.5625 C 25.191406 -85.863281 25.789062 -86.015625 26.6875 -86.015625 C 27.59375 -86.015625 28.507812 -85.960938 29.4375 -85.859375 C 30.363281 -85.765625 31.050781 -85.71875 31.5 -85.71875 C 32.15625 -85.71875 32.992188 -85.78125 34.015625 -85.90625 C 35.046875 -86.03125 36.050781 -86.078125 37.03125 -86.046875 C 38.007812 -86.023438 38.773438 -85.789062 39.328125 -85.34375 C 39.878906 -84.882812 40.191406 -84.304688 40.265625 -83.609375 C 40.335938 -82.910156 40.320312 -82.171875 40.21875 -81.390625 C 40.125 -80.609375 40.078125 -79.894531 40.078125 -79.25 C 40.128906 -78.039062 40.140625 -76.820312 40.109375 -75.59375 C 40.085938 -74.375 40.050781 -73.132812 40 -71.875 C 40 -69.125 39.960938 -66.351562 39.890625 -63.5625 C 39.816406 -60.78125 39.78125 -57.988281 39.78125 -55.1875 C 39.78125 -50.070312 39.765625 -44.957031 39.734375 -39.84375 C 39.710938 -34.738281 39.523438 -29.65625 39.171875 -24.59375 C 39.023438 -22.28125 38.800781 -19.921875 38.5 -17.515625 C 38.195312 -15.109375 37.679688 -12.789062 36.953125 -10.5625 C 36.222656 -8.332031 35.128906 -6.335938 33.671875 -4.578125 C 32.222656 -2.828125 30.269531 -1.425781 27.8125 -0.375 C 26.363281 0.226562 24.671875 0.578125 22.734375 0.671875 C 20.804688 0.773438 18.898438 0.640625 17.015625 0.265625 C 15.140625 -0.109375 13.53125 -0.722656 12.1875 -1.578125 C 9.726562 -3.128906 7.910156 -5.117188 6.734375 -7.546875 C 5.554688 -9.984375 4.710938 -12.582031 4.203125 -15.34375 Z M 4.203125 -15.34375 "/></g></g></g><g fill="#eae2d3" fill-opacity="1"><g transform="translate(369.509614, 428.693523)"><g><path d="M 23.390625 -6.546875 C 23.390625 -8.398438 23.390625 -10.238281 23.390625 -12.0625 C 23.390625 -13.894531 23.390625 -15.738281 23.390625 -17.59375 C 23.390625 -20.394531 23.398438 -23.210938 23.421875 -26.046875 C 23.441406 -28.878906 23.503906 -31.703125 23.609375 -34.515625 C 23.660156 -35.109375 23.6875 -35.816406 23.6875 -36.640625 C 23.6875 -37.472656 23.546875 -38.253906 23.265625 -38.984375 C 22.992188 -39.710938 22.484375 -40.203125 21.734375 -40.453125 C 20.773438 -40.847656 20.132812 -40.769531 19.8125 -40.21875 C 19.488281 -39.664062 19.3125 -38.960938 19.28125 -38.109375 C 19.257812 -37.265625 19.222656 -36.539062 19.171875 -35.9375 C 18.972656 -32.976562 18.9375 -30.007812 19.0625 -27.03125 C 19.1875 -24.050781 19.171875 -21.082031 19.015625 -18.125 C 18.972656 -16.914062 18.960938 -15.695312 18.984375 -14.46875 C 19.003906 -13.238281 19.015625 -12 19.015625 -10.75 C 19.015625 -9.550781 19.078125 -8.210938 19.203125 -6.734375 C 19.328125 -5.253906 19.265625 -3.9375 19.015625 -2.78125 C 18.816406 -1.925781 18.441406 -1.375 17.890625 -1.125 C 17.335938 -0.875 16.6875 -0.773438 15.9375 -0.828125 C 15.1875 -0.878906 14.460938 -0.90625 13.765625 -0.90625 C 12.359375 -0.90625 10.835938 -0.828125 9.203125 -0.671875 C 7.578125 -0.523438 6.085938 -0.601562 4.734375 -0.90625 C 3.628906 -1.101562 3.023438 -1.476562 2.921875 -2.03125 C 2.828125 -2.582031 2.78125 -3.332031 2.78125 -4.28125 C 2.78125 -5.6875 2.765625 -7.113281 2.734375 -8.5625 C 2.710938 -10.019531 2.703125 -11.476562 2.703125 -12.9375 C 2.648438 -18.09375 2.660156 -23.273438 2.734375 -28.484375 C 2.816406 -33.703125 2.882812 -38.894531 2.9375 -44.0625 C 2.9375 -50.125 2.9375 -56.1875 2.9375 -62.25 C 2.9375 -68.320312 2.9375 -74.390625 2.9375 -80.453125 C 2.976562 -80.898438 2.960938 -81.5 2.890625 -82.25 C 2.816406 -83.007812 2.804688 -83.738281 2.859375 -84.4375 C 2.910156 -85.132812 3.109375 -85.660156 3.453125 -86.015625 C 3.859375 -86.316406 4.410156 -86.46875 5.109375 -86.46875 C 5.816406 -86.46875 6.546875 -86.414062 7.296875 -86.3125 C 8.046875 -86.21875 8.644531 -86.144531 9.09375 -86.09375 C 10.945312 -85.988281 12.863281 -86 14.84375 -86.125 C 16.820312 -86.25 18.789062 -86.296875 20.75 -86.265625 C 22.707031 -86.242188 24.585938 -86.007812 26.390625 -85.5625 C 30.097656 -84.613281 33.03125 -82.984375 35.1875 -80.671875 C 37.34375 -78.367188 38.804688 -75.625 39.578125 -72.4375 C 40.359375 -69.257812 40.5 -65.890625 40 -62.328125 C 39.644531 -59.828125 38.765625 -57.644531 37.359375 -55.78125 C 35.960938 -53.925781 34.285156 -52.222656 32.328125 -50.671875 C 31.222656 -49.816406 30.867188 -49.253906 31.265625 -48.984375 C 31.671875 -48.710938 32.351562 -48.273438 33.3125 -47.671875 C 34.414062 -47.015625 35.390625 -46.195312 36.234375 -45.21875 C 37.085938 -44.25 37.738281 -43.160156 38.1875 -41.953125 C 38.84375 -40.097656 39.234375 -38.128906 39.359375 -36.046875 C 39.484375 -33.972656 39.484375 -31.878906 39.359375 -29.765625 C 39.234375 -27.660156 39.171875 -25.660156 39.171875 -23.765625 C 39.222656 -20.453125 39.269531 -17.140625 39.3125 -13.828125 C 39.363281 -10.523438 39.316406 -7.242188 39.171875 -3.984375 C 39.117188 -2.378906 38.726562 -1.460938 38 -1.234375 C 37.28125 -1.015625 36.191406 -0.90625 34.734375 -0.90625 C 33.285156 -0.90625 31.734375 -0.828125 30.078125 -0.671875 C 28.421875 -0.523438 26.890625 -0.601562 25.484375 -0.90625 C 24.585938 -1.101562 24 -1.5 23.71875 -2.09375 C 23.445312 -2.695312 23.320312 -3.398438 23.34375 -4.203125 C 23.375 -5.003906 23.390625 -5.785156 23.390625 -6.546875 Z M 19.328125 -66.3125 C 19.328125 -65.8125 19.265625 -65.082031 19.140625 -64.125 C 19.015625 -63.175781 18.953125 -62.1875 18.953125 -61.15625 C 18.953125 -60.132812 19.085938 -59.269531 19.359375 -58.5625 C 19.640625 -57.863281 20.15625 -57.539062 20.90625 -57.59375 C 21.957031 -57.445312 22.796875 -57.796875 23.421875 -58.640625 C 24.046875 -59.492188 24.507812 -60.472656 24.8125 -61.578125 C 25.113281 -62.679688 25.265625 -63.582031 25.265625 -64.28125 C 25.359375 -65.238281 25.332031 -66.28125 25.1875 -67.40625 C 25.039062 -68.53125 24.703125 -69.554688 24.171875 -70.484375 C 23.648438 -71.410156 22.835938 -72.023438 21.734375 -72.328125 C 20.878906 -72.578125 20.265625 -72.5 19.890625 -72.09375 C 19.515625 -71.695312 19.300781 -71.144531 19.25 -70.4375 C 19.195312 -69.738281 19.195312 -69 19.25 -68.21875 C 19.300781 -67.445312 19.328125 -66.8125 19.328125 -66.3125 Z M 19.328125 -66.3125 "/></g></g></g><g fill="#eae2d3" fill-opacity="1"><g transform="translate(412.5101, 428.693523)"><g/></g></g><g fill="#eae2d3" fill-opacity="1"><g transform="translate(438.145002, 428.693523)"><g><path d="M 3 -24.8125 C 3 -24.8125 2.976562 -24.8125 2.9375 -24.8125 C 2.9375 -32.632812 2.882812 -40.46875 2.78125 -48.3125 C 2.675781 -56.15625 2.648438 -63.984375 2.703125 -71.796875 C 2.753906 -73.453125 2.816406 -75.09375 2.890625 -76.71875 C 2.960938 -78.351562 2.976562 -80 2.9375 -81.65625 C 2.832031 -83.3125 3.101562 -84.410156 3.75 -84.953125 C 4.40625 -85.503906 5.296875 -85.769531 6.421875 -85.75 C 7.554688 -85.726562 8.800781 -85.71875 10.15625 -85.71875 C 12.351562 -85.71875 14.71875 -85.726562 17.25 -85.75 C 19.78125 -85.769531 22.234375 -85.539062 24.609375 -85.0625 C 26.992188 -84.59375 29.066406 -83.554688 30.828125 -81.953125 C 32.535156 -80.398438 33.800781 -78.507812 34.625 -76.28125 C 35.445312 -74.050781 35.78125 -71.742188 35.625 -69.359375 C 35.476562 -66.972656 34.804688 -64.804688 33.609375 -62.859375 C 33.304688 -62.359375 32.78125 -61.71875 32.03125 -60.9375 C 31.28125 -60.164062 30.851562 -59.503906 30.75 -58.953125 C 30.644531 -58.296875 30.894531 -57.664062 31.5 -57.0625 C 32.101562 -56.46875 32.601562 -55.914062 33 -55.40625 C 34.15625 -53.851562 35.082031 -52.222656 35.78125 -50.515625 C 36.488281 -48.816406 37.066406 -47.039062 37.515625 -45.1875 C 38.265625 -42.03125 38.828125 -38.570312 39.203125 -34.8125 C 39.585938 -31.050781 39.585938 -27.265625 39.203125 -23.453125 C 38.828125 -19.648438 37.960938 -16.066406 36.609375 -12.703125 C 35.265625 -9.347656 33.257812 -6.492188 30.59375 -4.140625 C 28.945312 -2.679688 27.132812 -1.722656 25.15625 -1.265625 C 23.175781 -0.816406 21.109375 -0.570312 18.953125 -0.53125 C 17.742188 -0.476562 16.515625 -0.460938 15.265625 -0.484375 C 14.015625 -0.515625 12.757812 -0.53125 11.5 -0.53125 C 10.550781 -0.53125 9.460938 -0.453125 8.234375 -0.296875 C 7.003906 -0.148438 5.890625 -0.148438 4.890625 -0.296875 C 4.035156 -0.398438 3.457031 -0.800781 3.15625 -1.5 C 2.851562 -2.207031 2.703125 -3.035156 2.703125 -3.984375 C 2.703125 -4.929688 2.75 -5.878906 2.84375 -6.828125 C 2.945312 -7.785156 3 -8.59375 3 -9.25 C 3 -11.800781 3 -14.378906 3 -16.984375 C 3 -19.597656 3 -22.207031 3 -24.8125 Z M 20.59375 -54.28125 C 19.59375 -54.382812 18.96875 -54.097656 18.71875 -53.421875 C 18.46875 -52.742188 18.367188 -51.941406 18.421875 -51.015625 C 18.472656 -50.085938 18.5 -49.320312 18.5 -48.71875 C 18.5 -48.070312 18.5 -47.367188 18.5 -46.609375 C 18.5 -45.859375 18.5625 -45.179688 18.6875 -44.578125 C 18.8125 -43.984375 19.109375 -43.609375 19.578125 -43.453125 C 20.054688 -43.304688 20.75 -43.535156 21.65625 -44.140625 C 22.601562 -44.734375 23.203125 -45.492188 23.453125 -46.421875 C 23.703125 -47.347656 23.78125 -48.335938 23.6875 -49.390625 C 23.632812 -50.296875 23.378906 -51.300781 22.921875 -52.40625 C 22.472656 -53.507812 21.695312 -54.132812 20.59375 -54.28125 Z M 19.25 -74.359375 C 18.84375 -74.160156 18.585938 -73.695312 18.484375 -72.96875 C 18.390625 -72.238281 18.367188 -71.5 18.421875 -70.75 C 18.472656 -70 18.5 -69.472656 18.5 -69.171875 C 18.5 -68.566406 18.484375 -67.835938 18.453125 -66.984375 C 18.429688 -66.140625 18.570312 -65.460938 18.875 -64.953125 C 19.175781 -64.453125 19.800781 -64.457031 20.75 -64.96875 C 21.75 -65.46875 22.382812 -66.351562 22.65625 -67.625 C 22.9375 -68.90625 22.976562 -70.023438 22.78125 -70.984375 C 22.675781 -71.328125 22.460938 -71.835938 22.140625 -72.515625 C 21.816406 -73.191406 21.390625 -73.742188 20.859375 -74.171875 C 20.335938 -74.597656 19.800781 -74.660156 19.25 -74.359375 Z M 19.25 -74.359375 "/></g></g></g><g fill="#eae2d3" fill-opacity="1"><g transform="translate(480.318583, 428.693523)"><g><path d="M 9.328125 -86.09375 C 10.378906 -86.09375 11.441406 -86.09375 12.515625 -86.09375 C 13.597656 -86.09375 14.664062 -86.09375 15.71875 -86.09375 C 17.414062 -86.09375 19.289062 -86.175781 21.34375 -86.34375 C 23.40625 -86.519531 25.238281 -86.410156 26.84375 -86.015625 C 27.894531 -85.710938 28.570312 -85.046875 28.875 -84.015625 C 29.175781 -82.992188 29.273438 -81.84375 29.171875 -80.5625 C 29.066406 -79.28125 28.992188 -78.191406 28.953125 -77.296875 C 28.898438 -75.890625 28.582031 -74.957031 28 -74.5 C 27.425781 -74.050781 26.675781 -73.828125 25.75 -73.828125 C 24.820312 -73.828125 23.78125 -73.828125 22.625 -73.828125 C 22.125 -73.828125 21.535156 -73.835938 20.859375 -73.859375 C 20.179688 -73.890625 19.644531 -73.707031 19.25 -73.3125 C 18.894531 -72.957031 18.691406 -72.289062 18.640625 -71.3125 C 18.597656 -70.332031 18.703125 -69.617188 18.953125 -69.171875 C 19.347656 -68.515625 19.910156 -68.132812 20.640625 -68.03125 C 21.367188 -67.9375 22.15625 -67.953125 23 -68.078125 C 23.851562 -68.203125 24.679688 -68.300781 25.484375 -68.375 C 26.285156 -68.457031 26.960938 -68.347656 27.515625 -68.046875 C 28.316406 -67.640625 28.816406 -66.875 29.015625 -65.75 C 29.222656 -64.625 29.273438 -63.429688 29.171875 -62.171875 C 29.066406 -60.921875 28.96875 -59.945312 28.875 -59.25 C 28.675781 -58.039062 28.1875 -57.296875 27.40625 -57.015625 C 26.625 -56.742188 25.734375 -56.644531 24.734375 -56.71875 C 23.734375 -56.800781 22.753906 -56.84375 21.796875 -56.84375 C 20.703125 -56.789062 19.960938 -56.640625 19.578125 -56.390625 C 19.203125 -56.140625 18.941406 -55.488281 18.796875 -54.4375 C 18.691406 -53.582031 18.613281 -52.59375 18.5625 -51.46875 C 18.519531 -50.34375 18.597656 -49.351562 18.796875 -48.5 C 18.992188 -47.539062 19.46875 -46.9375 20.21875 -46.6875 C 20.976562 -46.4375 21.820312 -46.347656 22.75 -46.421875 C 23.675781 -46.503906 24.539062 -46.519531 25.34375 -46.46875 C 26.894531 -46.414062 27.882812 -45.972656 28.3125 -45.140625 C 28.738281 -44.316406 28.898438 -43.289062 28.796875 -42.0625 C 28.691406 -40.832031 28.640625 -39.644531 28.640625 -38.5 C 28.640625 -34.332031 28.640625 -30.179688 28.640625 -26.046875 C 28.640625 -21.910156 28.640625 -17.765625 28.640625 -13.609375 C 28.640625 -12.554688 28.703125 -11.363281 28.828125 -10.03125 C 28.953125 -8.707031 29.015625 -7.394531 29.015625 -6.09375 C 29.015625 -4.789062 28.84375 -3.632812 28.5 -2.625 C 28.195312 -1.625 27.582031 -1.007812 26.65625 -0.78125 C 25.726562 -0.5625 24.710938 -0.515625 23.609375 -0.640625 C 22.503906 -0.765625 21.523438 -0.828125 20.671875 -0.828125 C 19.066406 -0.878906 17.460938 -0.84375 15.859375 -0.71875 C 14.253906 -0.59375 12.648438 -0.53125 11.046875 -0.53125 C 10.296875 -0.53125 9.34375 -0.515625 8.1875 -0.484375 C 7.039062 -0.460938 5.960938 -0.578125 4.953125 -0.828125 C 3.953125 -1.078125 3.328125 -1.628906 3.078125 -2.484375 C 2.734375 -3.429688 2.597656 -4.546875 2.671875 -5.828125 C 2.742188 -7.109375 2.851562 -8.398438 3 -9.703125 C 3.15625 -11.003906 3.234375 -12.15625 3.234375 -13.15625 C 3.128906 -15.363281 3.050781 -17.546875 3 -19.703125 C 2.957031 -21.859375 2.9375 -24.015625 2.9375 -26.171875 C 2.9375 -30.984375 2.9375 -35.789062 2.9375 -40.59375 C 2.9375 -45.40625 2.9375 -50.21875 2.9375 -55.03125 C 3.238281 -56.59375 3.347656 -58.285156 3.265625 -60.109375 C 3.191406 -61.941406 3.179688 -63.660156 3.234375 -65.265625 C 3.234375 -67.421875 3.234375 -69.578125 3.234375 -71.734375 C 3.234375 -73.890625 3.234375 -76.039062 3.234375 -78.1875 C 3.234375 -78.789062 3.171875 -79.617188 3.046875 -80.671875 C 2.921875 -81.722656 2.878906 -82.75 2.921875 -83.75 C 2.972656 -84.757812 3.273438 -85.460938 3.828125 -85.859375 C 4.128906 -86.109375 4.644531 -86.234375 5.375 -86.234375 C 6.101562 -86.234375 6.84375 -86.207031 7.59375 -86.15625 C 8.34375 -86.113281 8.921875 -86.09375 9.328125 -86.09375 Z M 9.328125 -86.09375 "/></g></g></g><g fill="#eae2d3" fill-opacity="1"><g transform="translate(512.193078, 428.693523)"><g><path d="M 27 -2.40625 C 24.882812 -1.40625 22.722656 -0.890625 20.515625 -0.859375 C 18.316406 -0.835938 16.085938 -0.828125 13.828125 -0.828125 C 12.578125 -0.828125 11.328125 -0.8125 10.078125 -0.78125 C 8.828125 -0.757812 7.597656 -0.773438 6.390625 -0.828125 C 5.191406 -0.929688 4.425781 -1.171875 4.09375 -1.546875 C 3.769531 -1.921875 3.609375 -2.707031 3.609375 -3.90625 C 3.609375 -6.414062 3.632812 -8.882812 3.6875 -11.3125 C 3.738281 -13.75 3.710938 -16.21875 3.609375 -18.71875 C 3.554688 -20.769531 3.515625 -22.859375 3.484375 -24.984375 C 3.460938 -27.117188 3.503906 -29.21875 3.609375 -31.28125 C 3.660156 -32.53125 3.707031 -33.78125 3.75 -35.03125 C 3.800781 -36.289062 3.828125 -37.546875 3.828125 -38.796875 C 3.828125 -39.347656 3.773438 -40.148438 3.671875 -41.203125 C 3.578125 -42.253906 3.554688 -43.289062 3.609375 -44.3125 C 3.660156 -45.34375 3.910156 -46.0625 4.359375 -46.46875 C 4.960938 -46.96875 5.765625 -47.175781 6.765625 -47.09375 C 7.765625 -47.019531 8.78125 -46.910156 9.8125 -46.765625 C 10.84375 -46.617188 11.757812 -46.691406 12.5625 -46.984375 C 13.363281 -47.285156 13.863281 -48.039062 14.0625 -49.25 C 14.257812 -50.25 14.03125 -51.273438 13.375 -52.328125 C 12.726562 -53.378906 11.914062 -54.40625 10.9375 -55.40625 C 9.957031 -56.414062 8.976562 -57.367188 8 -58.265625 C 7.03125 -59.171875 6.296875 -59.972656 5.796875 -60.671875 C 4.484375 -62.429688 3.585938 -64.410156 3.109375 -66.609375 C 2.640625 -68.816406 2.566406 -71.046875 2.890625 -73.296875 C 3.222656 -75.554688 3.953125 -77.648438 5.078125 -79.578125 C 6.203125 -81.515625 7.71875 -83.082031 9.625 -84.28125 C 12.082031 -85.832031 14.773438 -86.734375 17.703125 -86.984375 C 20.640625 -87.242188 23.421875 -86.78125 26.046875 -85.59375 C 28.679688 -84.414062 30.75 -82.5 32.25 -79.84375 C 33.457031 -77.738281 34.296875 -75.570312 34.765625 -73.34375 C 35.242188 -71.113281 35.5625 -68.796875 35.71875 -66.390625 C 35.769531 -65.585938 35.804688 -64.796875 35.828125 -64.015625 C 35.847656 -63.242188 35.507812 -62.582031 34.8125 -62.03125 C 34.257812 -61.675781 33.441406 -61.5 32.359375 -61.5 C 31.285156 -61.5 30.207031 -61.5625 29.125 -61.6875 C 28.050781 -61.8125 27.210938 -61.898438 26.609375 -61.953125 C 25.304688 -62.148438 24.46875 -62.613281 24.09375 -63.34375 C 23.71875 -64.070312 23.554688 -64.9375 23.609375 -65.9375 C 23.660156 -66.9375 23.695312 -67.988281 23.71875 -69.09375 C 23.75 -70.195312 23.535156 -71.226562 23.078125 -72.1875 C 22.628906 -73.1875 21.941406 -73.910156 21.015625 -74.359375 C 20.085938 -74.804688 19.125 -74.609375 18.125 -73.765625 C 17.320312 -73.054688 16.859375 -72.175781 16.734375 -71.125 C 16.609375 -70.070312 16.59375 -69.046875 16.6875 -68.046875 C 16.789062 -66.035156 17.351562 -64.253906 18.375 -62.703125 C 19.40625 -61.148438 20.671875 -59.722656 22.171875 -58.421875 C 23.679688 -57.117188 25.257812 -55.835938 26.90625 -54.578125 C 28.5625 -53.328125 30.09375 -52.015625 31.5 -50.640625 C 32.90625 -49.265625 33.984375 -47.722656 34.734375 -46.015625 C 36.085938 -43.054688 37.050781 -39.757812 37.625 -36.125 C 38.207031 -32.488281 38.375 -28.84375 38.125 -25.1875 C 37.875 -21.53125 37.222656 -18.171875 36.171875 -15.109375 C 35.316406 -12.648438 34.1875 -10.21875 32.78125 -7.8125 C 31.375 -5.40625 29.445312 -3.601562 27 -2.40625 Z M 27 -2.40625 "/></g></g></g><g fill="#eae2d3" fill-opacity="1"><g transform="translate(553.088676, 428.693523)"><g><path d="M 9.015625 -18.125 C 9.015625 -24.238281 9.003906 -30.351562 8.984375 -36.46875 C 8.960938 -42.582031 8.972656 -48.695312 9.015625 -54.8125 C 9.015625 -56.363281 9.050781 -57.925781 9.125 -59.5 C 9.207031 -61.082031 9.25 -62.648438 9.25 -64.203125 C 9.25 -65.304688 9.3125 -66.609375 9.4375 -68.109375 C 9.5625 -69.617188 9.421875 -70.925781 9.015625 -72.03125 C 8.722656 -72.976562 8.300781 -73.460938 7.75 -73.484375 C 7.195312 -73.515625 6.582031 -73.453125 5.90625 -73.296875 C 5.226562 -73.148438 4.535156 -73.304688 3.828125 -73.765625 C 3.273438 -74.109375 2.9375 -74.628906 2.8125 -75.328125 C 2.6875 -76.035156 2.660156 -76.765625 2.734375 -77.515625 C 2.816406 -78.265625 2.859375 -78.941406 2.859375 -79.546875 C 2.859375 -80.097656 2.816406 -80.773438 2.734375 -81.578125 C 2.660156 -82.378906 2.660156 -83.15625 2.734375 -83.90625 C 2.816406 -84.65625 3.082031 -85.234375 3.53125 -85.640625 C 4.03125 -86.035156 4.804688 -86.234375 5.859375 -86.234375 C 6.910156 -86.234375 7.972656 -86.15625 9.046875 -86 C 10.128906 -85.851562 10.972656 -85.78125 11.578125 -85.78125 C 13.378906 -85.738281 15.171875 -85.71875 16.953125 -85.71875 C 18.734375 -85.71875 20.523438 -85.71875 22.328125 -85.71875 C 23.285156 -85.757812 24.25 -85.769531 25.21875 -85.75 C 26.195312 -85.726562 27.164062 -85.738281 28.125 -85.78125 C 28.570312 -85.78125 29.070312 -85.84375 29.625 -85.96875 C 30.175781 -86.101562 30.675781 -86.09375 31.125 -85.9375 C 32.125 -85.632812 32.710938 -85.046875 32.890625 -84.171875 C 33.066406 -83.296875 33.066406 -82.34375 32.890625 -81.3125 C 32.710938 -80.289062 32.625 -79.378906 32.625 -78.578125 C 32.582031 -77.722656 32.582031 -76.929688 32.625 -76.203125 C 32.675781 -75.472656 32.550781 -74.867188 32.25 -74.390625 C 31.945312 -73.921875 31.320312 -73.632812 30.375 -73.53125 C 29.375 -73.4375 28.472656 -73.425781 27.671875 -73.5 C 26.867188 -73.570312 26.21875 -73.441406 25.71875 -73.109375 C 25.21875 -72.785156 24.941406 -72 24.890625 -70.75 C 24.734375 -69.144531 24.679688 -67.503906 24.734375 -65.828125 C 24.785156 -64.148438 24.8125 -62.484375 24.8125 -60.828125 C 24.5625 -59.867188 24.484375 -58.875 24.578125 -57.84375 C 24.679688 -56.820312 24.757812 -55.835938 24.8125 -54.890625 C 24.863281 -53.984375 24.847656 -53.03125 24.765625 -52.03125 C 24.691406 -51.03125 24.832031 -50.078125 25.1875 -49.171875 C 25.59375 -48.265625 26.144531 -47.671875 26.84375 -47.390625 C 27.539062 -47.117188 28.289062 -46.957031 29.09375 -46.90625 C 29.894531 -46.863281 30.609375 -46.703125 31.234375 -46.421875 C 31.867188 -46.148438 32.3125 -45.5625 32.5625 -44.65625 C 32.757812 -43.757812 32.769531 -42.679688 32.59375 -41.421875 C 32.414062 -40.171875 32.328125 -39.070312 32.328125 -38.125 C 32.328125 -36.863281 32.3125 -35.59375 32.28125 -34.3125 C 32.257812 -33.039062 32.25 -31.753906 32.25 -30.453125 C 32.25 -28.097656 32.238281 -25.738281 32.21875 -23.375 C 32.195312 -21.019531 32.132812 -18.640625 32.03125 -16.234375 C 31.925781 -14.484375 31.695312 -12.601562 31.34375 -10.59375 C 31 -8.59375 30.410156 -6.738281 29.578125 -5.03125 C 28.753906 -3.332031 27.613281 -1.941406 26.15625 -0.859375 C 24.707031 0.210938 22.851562 0.75 20.59375 0.75 C 17.84375 0.75 15.6875 0.175781 14.125 -0.96875 C 12.570312 -2.125 11.421875 -3.628906 10.671875 -5.484375 C 9.921875 -7.335938 9.457031 -9.367188 9.28125 -11.578125 C 9.101562 -13.785156 9.015625 -15.96875 9.015625 -18.125 Z M 9.015625 -18.125 "/></g></g></g><g fill="#eae2d3" fill-opacity="1"><g transform="translate(588.797124, 428.693523)"><g/></g></g><g fill="#eae2d3" fill-opacity="1"><g transform="translate(614.432026, 428.693523)"><g><path d="M 51.734375 -72.625 C 51.734375 -72.625 51.707031 -72.625 51.65625 -72.625 C 51.65625 -61.5 51.640625 -50.347656 51.609375 -39.171875 C 51.585938 -27.992188 51.503906 -16.84375 51.359375 -5.71875 C 51.359375 -4.664062 51.316406 -3.675781 51.234375 -2.75 C 51.160156 -1.820312 50.546875 -1.179688 49.390625 -0.828125 C 48.441406 -0.523438 47.273438 -0.445312 45.890625 -0.59375 C 44.515625 -0.75 43.328125 -0.828125 42.328125 -0.828125 C 41.523438 -0.828125 40.671875 -0.800781 39.765625 -0.75 C 38.867188 -0.695312 38.144531 -1.023438 37.59375 -1.734375 C 37.289062 -2.179688 37.140625 -2.84375 37.140625 -3.71875 C 37.140625 -4.59375 37.175781 -5.492188 37.25 -6.421875 C 37.332031 -7.347656 37.375 -8.066406 37.375 -8.578125 C 37.375 -8.921875 37.382812 -9.816406 37.40625 -11.265625 C 37.425781 -12.722656 37.445312 -14.476562 37.46875 -16.53125 C 37.5 -18.59375 37.5 -20.710938 37.46875 -22.890625 C 37.445312 -25.078125 37.410156 -27.117188 37.359375 -29.015625 C 37.316406 -30.921875 37.242188 -32.488281 37.140625 -33.71875 C 37.046875 -34.945312 36.894531 -35.5625 36.6875 -35.5625 C 36.59375 -35.5625 36.421875 -34.945312 36.171875 -33.71875 C 35.921875 -32.488281 35.644531 -30.945312 35.34375 -29.09375 C 35.039062 -27.238281 34.738281 -25.332031 34.4375 -23.375 C 34.132812 -21.425781 33.867188 -19.722656 33.640625 -18.265625 C 33.421875 -16.816406 33.257812 -15.890625 33.15625 -15.484375 C 32.90625 -13.628906 32.640625 -11.757812 32.359375 -9.875 C 32.085938 -8 31.753906 -6.132812 31.359375 -4.28125 C 31.054688 -2.882812 30.578125 -1.945312 29.921875 -1.46875 C 29.273438 -0.988281 28.460938 -0.75 27.484375 -0.75 C 26.503906 -0.75 25.390625 -0.773438 24.140625 -0.828125 C 22.878906 -0.878906 22.007812 -1.179688 21.53125 -1.734375 C 21.0625 -2.285156 20.773438 -3.007812 20.671875 -3.90625 C 20.578125 -4.8125 20.476562 -5.789062 20.375 -6.84375 C 20.175781 -8.539062 19.925781 -10.242188 19.625 -11.953125 C 19.320312 -13.660156 19.046875 -15.363281 18.796875 -17.0625 C 18.796875 -17.46875 18.679688 -18.382812 18.453125 -19.8125 C 18.234375 -21.238281 17.957031 -22.890625 17.625 -24.765625 C 17.300781 -26.648438 16.988281 -28.492188 16.6875 -30.296875 C 16.382812 -32.097656 16.09375 -33.597656 15.8125 -34.796875 C 15.539062 -36.003906 15.359375 -36.585938 15.265625 -36.546875 C 15.109375 -36.546875 14.992188 -35.878906 14.921875 -34.546875 C 14.847656 -33.222656 14.820312 -31.554688 14.84375 -29.546875 C 14.875 -27.546875 14.910156 -25.515625 14.953125 -23.453125 C 15.003906 -21.398438 15.054688 -19.597656 15.109375 -18.046875 C 15.160156 -16.492188 15.1875 -15.515625 15.1875 -15.109375 C 14.882812 -13.253906 14.78125 -11.398438 14.875 -9.546875 C 14.976562 -7.691406 14.984375 -5.835938 14.890625 -3.984375 C 14.890625 -3.078125 14.835938 -2.410156 14.734375 -1.984375 C 14.640625 -1.566406 14.191406 -1.179688 13.390625 -0.828125 C 12.835938 -0.628906 12.007812 -0.539062 10.90625 -0.5625 C 9.800781 -0.582031 8.945312 -0.59375 8.34375 -0.59375 C 7.789062 -0.59375 7.023438 -0.582031 6.046875 -0.5625 C 5.078125 -0.539062 4.335938 -0.65625 3.828125 -0.90625 C 3.128906 -1.300781 2.789062 -1.847656 2.8125 -2.546875 C 2.84375 -3.253906 2.859375 -3.984375 2.859375 -4.734375 C 2.804688 -6.835938 2.78125 -8.941406 2.78125 -11.046875 C 2.78125 -13.148438 2.78125 -15.28125 2.78125 -17.4375 C 2.78125 -25.757812 2.78125 -34.101562 2.78125 -42.46875 C 2.78125 -50.84375 2.78125 -59.191406 2.78125 -67.515625 C 2.78125 -69.566406 2.78125 -71.609375 2.78125 -73.640625 C 2.78125 -75.671875 2.78125 -77.691406 2.78125 -79.703125 C 2.78125 -80.148438 2.753906 -80.738281 2.703125 -81.46875 C 2.648438 -82.195312 2.660156 -82.910156 2.734375 -83.609375 C 2.816406 -84.304688 3.007812 -84.832031 3.3125 -85.1875 C 3.863281 -85.738281 4.664062 -85.960938 5.71875 -85.859375 C 6.769531 -85.765625 7.617188 -85.71875 8.265625 -85.71875 C 9.921875 -85.71875 11.585938 -85.753906 13.265625 -85.828125 C 14.953125 -85.898438 16.617188 -85.9375 18.265625 -85.9375 C 19.617188 -85.9375 20.546875 -85.5625 21.046875 -84.8125 C 21.546875 -84.0625 21.867188 -83.144531 22.015625 -82.0625 C 22.171875 -80.988281 22.351562 -79.925781 22.5625 -78.875 C 23.15625 -75.3125 23.800781 -71.738281 24.5 -68.15625 C 25.207031 -64.570312 25.785156 -61 26.234375 -57.4375 C 26.441406 -56.132812 26.644531 -55.40625 26.84375 -55.25 C 27.039062 -55.101562 27.226562 -55.28125 27.40625 -55.78125 C 27.582031 -56.289062 27.753906 -56.921875 27.921875 -57.671875 C 28.097656 -58.421875 28.210938 -59.070312 28.265625 -59.625 C 28.566406 -61.375 28.941406 -63.125 29.390625 -64.875 C 29.847656 -66.632812 30.25 -68.394531 30.59375 -70.15625 C 31 -72.207031 31.351562 -74.269531 31.65625 -76.34375 C 31.957031 -78.425781 32.332031 -80.472656 32.78125 -82.484375 C 33.132812 -84.035156 33.734375 -85.035156 34.578125 -85.484375 C 35.429688 -85.941406 36.445312 -86.144531 37.625 -86.09375 C 38.800781 -86.039062 40.066406 -86.015625 41.421875 -86.015625 C 41.972656 -86.015625 42.722656 -86.0625 43.671875 -86.15625 C 44.628906 -86.257812 45.632812 -86.320312 46.6875 -86.34375 C 47.738281 -86.375 48.703125 -86.3125 49.578125 -86.15625 C 50.460938 -86.007812 51.078125 -85.6875 51.421875 -85.1875 C 51.671875 -84.832031 51.820312 -84.304688 51.875 -83.609375 C 51.925781 -82.910156 51.914062 -82.195312 51.84375 -81.46875 C 51.769531 -80.738281 51.734375 -80.175781 51.734375 -79.78125 C 51.734375 -78.570312 51.734375 -77.363281 51.734375 -76.15625 C 51.734375 -74.957031 51.734375 -73.78125 51.734375 -72.625 Z M 51.734375 -72.625 "/></g></g></g><g fill="#eae2d3" fill-opacity="1"><g transform="translate(669.009584, 428.693523)"><g><path d="M 34.140625 -77.296875 C 36.140625 -72.578125 37.613281 -67.585938 38.5625 -62.328125 C 39.519531 -57.066406 40.132812 -51.738281 40.40625 -46.34375 C 40.6875 -40.957031 40.828125 -35.734375 40.828125 -30.671875 C 40.828125 -28.222656 40.722656 -25.628906 40.515625 -22.890625 C 40.316406 -20.160156 39.914062 -17.503906 39.3125 -14.921875 C 38.71875 -12.335938 37.804688 -9.976562 36.578125 -7.84375 C 35.347656 -5.71875 33.71875 -3.953125 31.6875 -2.546875 C 29.65625 -1.148438 27.085938 -0.300781 23.984375 0 C 20.828125 0.300781 17.78125 -0.171875 14.84375 -1.421875 C 11.914062 -2.679688 9.523438 -4.640625 7.671875 -7.296875 C 6.316406 -9.242188 5.3125 -11.382812 4.65625 -13.71875 C 4.007812 -16.050781 3.570312 -18.429688 3.34375 -20.859375 C 3.113281 -23.296875 2.925781 -25.664062 2.78125 -27.96875 C 2.582031 -31.375 2.644531 -34.769531 2.96875 -38.15625 C 3.289062 -41.539062 3.628906 -44.9375 3.984375 -48.34375 C 4.335938 -51.851562 4.863281 -55.410156 5.5625 -59.015625 C 6.257812 -62.628906 7.160156 -66.140625 8.265625 -69.546875 C 8.765625 -71.003906 9.273438 -72.597656 9.796875 -74.328125 C 10.328125 -76.054688 10.984375 -77.757812 11.765625 -79.4375 C 12.546875 -81.113281 13.5 -82.601562 14.625 -83.90625 C 15.75 -85.207031 17.113281 -86.109375 18.71875 -86.609375 C 21.226562 -87.460938 23.472656 -87.523438 25.453125 -86.796875 C 27.429688 -86.078125 29.144531 -84.851562 30.59375 -83.125 C 32.050781 -81.394531 33.234375 -79.453125 34.140625 -77.296875 Z M 22.1875 -73.453125 C 21.332031 -73.609375 20.613281 -73.285156 20.03125 -72.484375 C 19.457031 -71.679688 19.007812 -70.628906 18.6875 -69.328125 C 18.363281 -68.023438 18.125 -66.65625 17.96875 -65.21875 C 17.820312 -63.789062 17.734375 -62.5 17.703125 -61.34375 C 17.679688 -60.195312 17.671875 -59.398438 17.671875 -58.953125 C 17.671875 -58.097656 17.71875 -57.03125 17.8125 -55.75 C 17.914062 -54.46875 18.15625 -53.238281 18.53125 -52.0625 C 18.90625 -50.882812 19.503906 -50.007812 20.328125 -49.4375 C 21.160156 -48.863281 22.28125 -48.875 23.6875 -49.46875 C 24.738281 -49.875 25.488281 -50.550781 25.9375 -51.5 C 26.382812 -52.457031 26.660156 -53.523438 26.765625 -54.703125 C 26.867188 -55.878906 26.878906 -57.054688 26.796875 -58.234375 C 26.722656 -59.410156 26.660156 -60.453125 26.609375 -61.359375 C 26.566406 -62.054688 26.492188 -63.03125 26.390625 -64.28125 C 26.285156 -65.539062 26.09375 -66.84375 25.8125 -68.1875 C 25.539062 -69.539062 25.117188 -70.71875 24.546875 -71.71875 C 23.972656 -72.726562 23.1875 -73.304688 22.1875 -73.453125 Z M 22.1875 -73.453125 "/></g></g></g><g fill="#eae2d3" fill-opacity="1"><g transform="translate(712.461151, 428.693523)"><g><path d="M 34.140625 -77.296875 C 36.140625 -72.578125 37.613281 -67.585938 38.5625 -62.328125 C 39.519531 -57.066406 40.132812 -51.738281 40.40625 -46.34375 C 40.6875 -40.957031 40.828125 -35.734375 40.828125 -30.671875 C 40.828125 -28.222656 40.722656 -25.628906 40.515625 -22.890625 C 40.316406 -20.160156 39.914062 -17.503906 39.3125 -14.921875 C 38.71875 -12.335938 37.804688 -9.976562 36.578125 -7.84375 C 35.347656 -5.71875 33.71875 -3.953125 31.6875 -2.546875 C 29.65625 -1.148438 27.085938 -0.300781 23.984375 0 C 20.828125 0.300781 17.78125 -0.171875 14.84375 -1.421875 C 11.914062 -2.679688 9.523438 -4.640625 7.671875 -7.296875 C 6.316406 -9.242188 5.3125 -11.382812 4.65625 -13.71875 C 4.007812 -16.050781 3.570312 -18.429688 3.34375 -20.859375 C 3.113281 -23.296875 2.925781 -25.664062 2.78125 -27.96875 C 2.582031 -31.375 2.644531 -34.769531 2.96875 -38.15625 C 3.289062 -41.539062 3.628906 -44.9375 3.984375 -48.34375 C 4.335938 -51.851562 4.863281 -55.410156 5.5625 -59.015625 C 6.257812 -62.628906 7.160156 -66.140625 8.265625 -69.546875 C 8.765625 -71.003906 9.273438 -72.597656 9.796875 -74.328125 C 10.328125 -76.054688 10.984375 -77.757812 11.765625 -79.4375 C 12.546875 -81.113281 13.5 -82.601562 14.625 -83.90625 C 15.75 -85.207031 17.113281 -86.109375 18.71875 -86.609375 C 21.226562 -87.460938 23.472656 -87.523438 25.453125 -86.796875 C 27.429688 -86.078125 29.144531 -84.851562 30.59375 -83.125 C 32.050781 -81.394531 33.234375 -79.453125 34.140625 -77.296875 Z M 22.1875 -73.453125 C 21.332031 -73.609375 20.613281 -73.285156 20.03125 -72.484375 C 19.457031 -71.679688 19.007812 -70.628906 18.6875 -69.328125 C 18.363281 -68.023438 18.125 -66.65625 17.96875 -65.21875 C 17.820312 -63.789062 17.734375 -62.5 17.703125 -61.34375 C 17.679688 -60.195312 17.671875 -59.398438 17.671875 -58.953125 C 17.671875 -58.097656 17.71875 -57.03125 17.8125 -55.75 C 17.914062 -54.46875 18.15625 -53.238281 18.53125 -52.0625 C 18.90625 -50.882812 19.503906 -50.007812 20.328125 -49.4375 C 21.160156 -48.863281 22.28125 -48.875 23.6875 -49.46875 C 24.738281 -49.875 25.488281 -50.550781 25.9375 -51.5 C 26.382812 -52.457031 26.660156 -53.523438 26.765625 -54.703125 C 26.867188 -55.878906 26.878906 -57.054688 26.796875 -58.234375 C 26.722656 -59.410156 26.660156 -60.453125 26.609375 -61.359375 C 26.566406 -62.054688 26.492188 -63.03125 26.390625 -64.28125 C 26.285156 -65.539062 26.09375 -66.84375 25.8125 -68.1875 C 25.539062 -69.539062 25.117188 -70.71875 24.546875 -71.71875 C 23.972656 -72.726562 23.1875 -73.304688 22.1875 -73.453125 Z M 22.1875 -73.453125 "/></g></g></g><g fill="#eae2d3" fill-opacity="1"><g transform="translate(755.912717, 428.693523)"><g><path d="M 36.09375 -65.1875 C 36.894531 -61.28125 37.421875 -57.296875 37.671875 -53.234375 C 37.921875 -49.171875 38.046875 -45.132812 38.046875 -41.125 C 38.046875 -38.820312 38.046875 -36.21875 38.046875 -33.3125 C 38.046875 -30.40625 37.921875 -27.421875 37.671875 -24.359375 C 37.421875 -21.304688 36.90625 -18.347656 36.125 -15.484375 C 35.351562 -12.628906 34.210938 -10.070312 32.703125 -7.8125 C 31.203125 -5.5625 29.171875 -3.832031 26.609375 -2.625 C 25.160156 -1.925781 23.546875 -1.460938 21.765625 -1.234375 C 19.984375 -1.015625 18.289062 -0.90625 16.6875 -0.90625 C 14.882812 -0.851562 12.890625 -0.710938 10.703125 -0.484375 C 8.523438 -0.265625 6.585938 -0.378906 4.890625 -0.828125 C 3.929688 -1.078125 3.363281 -1.648438 3.1875 -2.546875 C 3.019531 -3.453125 3.007812 -4.457031 3.15625 -5.5625 C 3.3125 -6.664062 3.390625 -7.59375 3.390625 -8.34375 C 3.390625 -10.394531 3.398438 -12.445312 3.421875 -14.5 C 3.441406 -16.5625 3.453125 -18.59375 3.453125 -20.59375 C 3.453125 -28.269531 3.390625 -35.925781 3.265625 -43.5625 C 3.140625 -51.207031 3.078125 -58.84375 3.078125 -66.46875 C 3.078125 -68.414062 3.085938 -70.367188 3.109375 -72.328125 C 3.140625 -74.285156 3.128906 -76.238281 3.078125 -78.1875 C 3.023438 -79.09375 2.925781 -80.117188 2.78125 -81.265625 C 2.632812 -82.421875 2.6875 -83.453125 2.9375 -84.359375 C 3.1875 -85.265625 3.882812 -85.816406 5.03125 -86.015625 C 6.539062 -86.316406 8.160156 -86.40625 9.890625 -86.28125 C 11.617188 -86.15625 13.257812 -86.09375 14.8125 -86.09375 C 16.71875 -86.039062 18.492188 -85.828125 20.140625 -85.453125 C 21.796875 -85.078125 23.476562 -84.410156 25.1875 -83.453125 C 27.445312 -82.253906 29.289062 -80.675781 30.71875 -78.71875 C 32.144531 -76.757812 33.269531 -74.613281 34.09375 -72.28125 C 34.925781 -69.957031 35.59375 -67.59375 36.09375 -65.1875 Z M 18.875 -69.328125 C 18.875 -67.765625 18.875 -66.207031 18.875 -64.65625 C 18.875 -63.101562 18.875 -61.550781 18.875 -60 C 18.925781 -60 18.953125 -60 18.953125 -60 C 18.953125 -58.5 18.953125 -56.992188 18.953125 -55.484375 C 18.953125 -53.984375 18.953125 -52.484375 18.953125 -50.984375 C 18.953125 -50.378906 18.9375 -49.738281 18.90625 -49.0625 C 18.882812 -48.382812 19 -47.859375 19.25 -47.484375 C 19.5 -47.109375 20.050781 -47.070312 20.90625 -47.375 C 21.851562 -47.71875 22.601562 -48.390625 23.15625 -49.390625 C 23.707031 -50.398438 24.082031 -51.539062 24.28125 -52.8125 C 24.488281 -54.09375 24.601562 -55.359375 24.625 -56.609375 C 24.644531 -57.867188 24.65625 -58.875 24.65625 -59.625 C 24.613281 -60.875 24.523438 -62.273438 24.390625 -63.828125 C 24.265625 -65.390625 23.976562 -66.894531 23.53125 -68.34375 C 23.082031 -69.800781 22.378906 -70.976562 21.421875 -71.875 C 20.578125 -72.675781 19.976562 -72.976562 19.625 -72.78125 C 19.269531 -72.582031 19.066406 -72.128906 19.015625 -71.421875 C 18.972656 -70.722656 18.925781 -70.023438 18.875 -69.328125 Z M 18.875 -69.328125 "/></g></g></g></svg>