<svg xmlns="http://www.w3.org/2000/svg" xmlns:xlink="http://www.w3.org/1999/xlink" width="1080" zoomAndPan="magnify" viewBox="0 0 810 809.999993" height="1080" preserveAspectRatio="xMidYMid meet" version="1.0"><defs><clipPath id="915bb0b000"><path d="M 677 159.472656 L 796 159.472656 L 796 335 L 677 335 Z M 677 159.472656 " clip-rule="nonzero"/></clipPath><clipPath id="f6c84d40d3"><path d="M 230 453 L 325 453 L 325 622 L 230 622 Z M 230 453 " clip-rule="nonzero"/></clipPath><clipPath id="da85832905"><path d="M 202.199219 337.953125 L 1007.246094 248.535156 L 1039.785156 541.484375 L 234.734375 630.902344 Z M 202.199219 337.953125 " clip-rule="nonzero"/></clipPath><clipPath id="911372d957"><path d="M 202.199219 337.953125 L 1007.246094 248.535156 L 1039.785156 541.484375 L 234.734375 630.902344 Z M 202.199219 337.953125 " clip-rule="nonzero"/></clipPath><clipPath id="ca06d0c8cb"><path d="M 311 448 L 404 448 L 404 612 L 311 612 Z M 311 448 " clip-rule="nonzero"/></clipPath><clipPath id="9c26baaab0"><path d="M 202.199219 337.953125 L 1007.246094 248.535156 L 1039.785156 541.484375 L 234.734375 630.902344 Z M 202.199219 337.953125 " clip-rule="nonzero"/></clipPath><clipPath id="9201bdf038"><path d="M 202.199219 337.953125 L 1007.246094 248.535156 L 1039.785156 541.484375 L 234.734375 630.902344 Z M 202.199219 337.953125 " clip-rule="nonzero"/></clipPath><clipPath id="fe21bf3b18"><path d="M 391 425 L 509 425 L 509 596 L 391 596 Z M 391 425 " clip-rule="nonzero"/></clipPath><clipPath id="8607a13c11"><path d="M 202.199219 337.953125 L 1007.246094 248.535156 L 1039.785156 541.484375 L 234.734375 630.902344 Z M 202.199219 337.953125 " clip-rule="nonzero"/></clipPath><clipPath id="f6e77e395f"><path d="M 202.199219 337.953125 L 1007.246094 248.535156 L 1039.785156 541.484375 L 234.734375 630.902344 Z M 202.199219 337.953125 " clip-rule="nonzero"/></clipPath><clipPath id="d066a978e4"><path d="M 493 403 L 533 403 L 533 582 L 493 582 Z M 493 403 " clip-rule="nonzero"/></clipPath><clipPath id="d5687e616e"><path d="M 202.199219 337.953125 L 1007.246094 248.535156 L 1039.785156 541.484375 L 234.734375 630.902344 Z M 202.199219 337.953125 " clip-rule="nonzero"/></clipPath><clipPath id="4c96f10596"><path d="M 202.199219 337.953125 L 1007.246094 248.535156 L 1039.785156 541.484375 L 234.734375 630.902344 Z M 202.199219 337.953125 " clip-rule="nonzero"/></clipPath><clipPath id="3d55c2e571"><path d="M 526 360 L 597 360 L 597 583 L 526 583 Z M 526 360 " clip-rule="nonzero"/></clipPath><clipPath id="9b18ab4c7a"><path d="M 202.199219 337.953125 L 1007.246094 248.535156 L 1039.785156 541.484375 L 234.734375 630.902344 Z M 202.199219 337.953125 " clip-rule="nonzero"/></clipPath><clipPath id="7928a9eead"><path d="M 202.199219 337.953125 L 1007.246094 248.535156 L 1039.785156 541.484375 L 234.734375 630.902344 Z M 202.199219 337.953125 " clip-rule="nonzero"/></clipPath><clipPath id="87188ebb10"><path d="M 606 346 L 680 346 L 680 578 L 606 578 Z M 606 346 " clip-rule="nonzero"/></clipPath><clipPath id="ee0c0d0bbe"><path d="M 202.199219 337.953125 L 1007.246094 248.535156 L 1039.785156 541.484375 L 234.734375 630.902344 Z M 202.199219 337.953125 " clip-rule="nonzero"/></clipPath><clipPath id="b595e6b454"><path d="M 202.199219 337.953125 L 1007.246094 248.535156 L 1039.785156 541.484375 L 234.734375 630.902344 Z M 202.199219 337.953125 " clip-rule="nonzero"/></clipPath><clipPath id="c0741d3999"><path d="M 704 337 L 776 337 L 776 543 L 704 543 Z M 704 337 " clip-rule="nonzero"/></clipPath><clipPath id="11db822666"><path d="M 202.199219 337.953125 L 1007.246094 248.535156 L 1039.785156 541.484375 L 234.734375 630.902344 Z M 202.199219 337.953125 " clip-rule="nonzero"/></clipPath><clipPath id="2084b1b93f"><path d="M 202.199219 337.953125 L 1007.246094 248.535156 L 1039.785156 541.484375 L 234.734375 630.902344 Z M 202.199219 337.953125 " clip-rule="nonzero"/></clipPath><clipPath id="e7e214fd61"><path d="M 769 297 L 810 297 L 810 496 L 769 496 Z M 769 297 " clip-rule="nonzero"/></clipPath><clipPath id="5e4bbd1923"><path d="M 202.199219 337.953125 L 1007.246094 248.535156 L 1039.785156 541.484375 L 234.734375 630.902344 Z M 202.199219 337.953125 " clip-rule="nonzero"/></clipPath><clipPath id="fe2967f37e"><path d="M 202.199219 337.953125 L 1007.246094 248.535156 L 1039.785156 541.484375 L 234.734375 630.902344 Z M 202.199219 337.953125 " clip-rule="nonzero"/></clipPath><clipPath id="4aa26d27fb"><path d="M 0 129 L 104 129 L 104 312 L 0 312 Z M 0 129 " clip-rule="nonzero"/></clipPath><clipPath id="d921f5b021"><path d="M 40.382812 57.96875 L 364.230469 147.519531 L 285.675781 431.609375 L -38.171875 342.058594 Z M 40.382812 57.96875 " clip-rule="nonzero"/></clipPath><clipPath id="dc5cb7a622"><path d="M -416.785156 -68.445312 L 363.917969 147.433594 L 285.363281 431.523438 L -495.339844 215.640625 Z M -416.785156 -68.445312 " clip-rule="nonzero"/></clipPath><clipPath id="ae9e3c312a"><path d="M 52 120 L 183 120 L 183 290 L 52 290 Z M 52 120 " clip-rule="nonzero"/></clipPath><clipPath id="187b834b8e"><path d="M 40.382812 57.96875 L 364.230469 147.519531 L 285.675781 431.609375 L -38.171875 342.058594 Z M 40.382812 57.96875 " clip-rule="nonzero"/></clipPath><clipPath id="1812e9812d"><path d="M -416.785156 -68.445312 L 363.917969 147.433594 L 285.363281 431.523438 L -495.339844 215.640625 Z M -416.785156 -68.445312 " clip-rule="nonzero"/></clipPath><clipPath id="7febe46166"><path d="M 128 115 L 263 115 L 263 276 L 128 276 Z M 128 115 " clip-rule="nonzero"/></clipPath><clipPath id="b0898afc1e"><path d="M 40.382812 57.96875 L 364.230469 147.519531 L 285.675781 431.609375 L -38.171875 342.058594 Z M 40.382812 57.96875 " clip-rule="nonzero"/></clipPath><clipPath id="ef1605795d"><path d="M -416.785156 -68.445312 L 363.917969 147.433594 L 285.363281 431.523438 L -495.339844 215.640625 Z M -416.785156 -68.445312 " clip-rule="nonzero"/></clipPath><clipPath id="693d859f44"><path d="M 189 121 L 330 121 L 330 286 L 189 286 Z M 189 121 " clip-rule="nonzero"/></clipPath><clipPath id="f2863c6163"><path d="M 40.382812 57.96875 L 364.230469 147.519531 L 285.675781 431.609375 L -38.171875 342.058594 Z M 40.382812 57.96875 " clip-rule="nonzero"/></clipPath><clipPath id="6cc3ed1ee0"><path d="M -416.785156 -68.445312 L 363.917969 147.433594 L 285.363281 431.523438 L -495.339844 215.640625 Z M -416.785156 -68.445312 " clip-rule="nonzero"/></clipPath></defs><rect x="-81" width="972" fill="#ffffff" y="-80.999999" height="971.999992" fill-opacity="0"/><rect x="-81" width="972" fill="#ffffff" y="-80.999999" height="971.999992" fill-opacity="0"/><path fill="#eae2d3" d="M 99.382812 313.734375 C 97.066406 317.738281 96.011719 319.84375 93.695312 324.265625 C 84.222656 324.054688 79.378906 324.054688 69.902344 324.054688 C 72.21875 319.632812 73.484375 317.527344 75.800781 313.734375 C 79.800781 307.417969 79.378906 303.839844 71.796875 304.472656 C 64.429688 305.101562 57.269531 308.894531 53.058594 315 C 33.476562 343.636719 21.476562 379.007812 23.371094 413.960938 C 24.214844 422.382812 29.054688 427.222656 36.636719 428.277344 C 44.214844 429.539062 46.953125 425.75 46.320312 417.117188 C 45.902344 411.855469 45.902344 409.328125 46.320312 403.851562 C 55.796875 404.484375 60.640625 404.484375 70.324219 404.273438 C 69.902344 409.75 69.902344 412.273438 70.113281 417.539062 C 71.167969 443.4375 68.429688 453.964844 46.742188 449.542969 C 25.054688 445.121094 6.316406 429.121094 2.949219 406.378906 C 0 374.375 12 341.949219 32.003906 317.316406 C 45.058594 302.15625 70.957031 290.363281 92.433594 287.207031 C 113.910156 284.257812 110.75 294.15625 99.382812 313.734375 Z M 99.382812 313.734375 " fill-opacity="1" fill-rule="nonzero"/><path fill="#eae2d3" d="M 81.90625 417.117188 C 82.117188 381.113281 93.695312 345.320312 110.960938 313.945312 C 122.121094 294.367188 147.175781 286.785156 168.652344 289.734375 C 190.128906 292.679688 189.289062 301.101562 180.023438 318.578125 C 165.707031 347.214844 154.757812 379.007812 151.808594 411.011719 C 150.757812 433.332031 145.914062 441.964844 124.015625 445.964844 C 102.117188 449.964844 82.746094 442.804688 81.90625 417.117188 Z M 134.121094 315.421875 C 117.910156 345.949219 106.328125 380.691406 105.277344 415.644531 C 105.277344 423.855469 109.910156 427.222656 117.488281 426.171875 C 125.070312 425.328125 128.226562 421.328125 128.4375 413.539062 C 130.332031 380.0625 141.492188 346.792969 156.863281 317.105469 C 160.019531 311 159.179688 307.417969 151.597656 306.578125 C 144.230469 306.15625 137.703125 309.105469 134.121094 315.421875 Z M 134.121094 315.421875 " fill-opacity="1" fill-rule="nonzero"/><path fill="#eae2d3" d="M 197.710938 362.796875 C 190.128906 382.585938 182.339844 413.117188 190.339844 434.382812 C 181.496094 435.648438 177.074219 436.277344 168.230469 437.753906 C 151.386719 397.535156 180.65625 321.105469 212.027344 294.785156 C 221.292969 295.417969 225.925781 295.628906 235.1875 295.417969 C 222.976562 312.050781 224.238281 326.371094 222.34375 358.375 C 238.769531 331.421875 251.613281 311.839844 273.507812 289.3125 C 282.140625 286.574219 286.351562 284.46875 294.566406 279.835938 C 270.5625 314.789062 249.296875 390.589844 256.035156 433.332031 C 247.191406 432.699219 242.980469 432.277344 234.136719 432.066406 C 228.449219 408.273438 238.347656 381.746094 244.453125 359.425781 C 232.871094 381.535156 216.871094 406.589844 214.132812 432.277344 C 212.871094 432.277344 212.238281 432.277344 210.765625 432.488281 C 194.339844 413.960938 195.816406 395.21875 197.710938 362.796875 Z M 197.710938 362.796875 " fill-opacity="1" fill-rule="nonzero"/><path fill="#eae2d3" d="M 289.089844 436.699219 C 280.246094 435.648438 276.035156 435.015625 267.191406 434.171875 C 261.085938 389.113281 281.089844 312.261719 303.828125 273.941406 C 310.988281 269.097656 314.566406 266.363281 321.515625 261.097656 C 304.039062 311.421875 283.828125 382.585938 289.089844 436.699219 Z M 289.089844 436.699219 " fill-opacity="1" fill-rule="nonzero"/><path fill="#eae2d3" d="M 333.304688 343.214844 C 327.832031 375.429688 320.042969 408.273438 321.726562 440.910156 C 313.09375 439.859375 308.671875 439.226562 299.828125 437.960938 C 296.25 386.167969 310.988281 302.578125 330.148438 254.359375 C 337.726562 248.886719 341.730469 246.359375 349.730469 241.726562 C 347.835938 272.679688 354.363281 304.683594 356.46875 335.632812 C 360.46875 301.523438 360.679688 266.363281 367.625 232.671875 C 375.628906 229.304688 379.628906 227.621094 387.839844 225.09375 C 377.3125 295.417969 366.785156 374.164062 364.890625 445.121094 C 355.625 444.488281 350.992188 444.070312 341.519531 443.015625 C 333.304688 411.011719 333.726562 376.480469 333.304688 343.214844 Z M 333.304688 343.214844 " fill-opacity="1" fill-rule="nonzero"/><path fill="#eae2d3" d="M 463.640625 261.730469 C 464.058594 268.046875 464.058594 271.203125 464.058594 277.941406 C 454.796875 277.941406 450.164062 278.152344 440.898438 278.574219 C 440.898438 271.835938 440.898438 268.46875 440.6875 262.152344 C 440.269531 251.621094 436.6875 246.359375 429.320312 246.78125 C 421.738281 247.410156 417.738281 253.097656 417.949219 263.625 C 419 310.578125 411.210938 356.480469 403.210938 402.589844 C 401.316406 413.328125 404.472656 417.960938 411.84375 417.328125 C 419.210938 416.695312 423.84375 411.433594 425.949219 400.90625 C 429.738281 381.746094 432.054688 371.21875 435.214844 349.742188 C 430.582031 350.160156 428.265625 350.160156 423.421875 350.582031 C 425.527344 336.054688 426.582031 328.683594 427.632812 314.15625 C 441.742188 313.316406 448.691406 312.894531 462.796875 312.472656 C 459.429688 341.527344 455.425781 369.742188 448.480469 398.167969 C 441.53125 429.121094 429.320312 443.4375 408.054688 445.332031 C 386.785156 447.226562 375.417969 435.015625 380.261719 403.433594 C 387.839844 358.164062 395.210938 312.894531 395.210938 266.78125 C 395.210938 236.042969 408.683594 218.777344 430.371094 216.882812 C 452.058594 214.988281 462.164062 230.355469 463.640625 261.730469 Z M 463.640625 261.730469 " fill-opacity="1" fill-rule="nonzero"/><path fill="#eae2d3" d="M 481.746094 390.378906 C 483.429688 384.691406 484.273438 381.746094 485.957031 375.640625 C 494.800781 373.324219 499.011719 372.058594 507.644531 369.113281 C 505.75 374.796875 504.90625 377.746094 503.011719 383.007812 C 499.855469 392.0625 501.75 394.589844 508.488281 391.21875 C 515.226562 387.851562 520.277344 382.375 523.859375 373.742188 C 528.070312 363.425781 530.175781 357.953125 533.542969 346.371094 C 536.492188 336.6875 533.964844 333.105469 526.59375 335.421875 C 504.695312 342.582031 497.75 325.949219 498.589844 293.3125 C 499.011719 280.257812 498.800781 273.941406 497.960938 262.152344 C 495.644531 232.460938 506.59375 222.355469 528.070312 219.617188 C 549.546875 216.882812 560.914062 222.144531 563.863281 248.886719 C 564.496094 254.148438 564.703125 257.097656 564.914062 262.78125 C 556.492188 266.363281 552.28125 268.257812 543.4375 270.785156 C 543.226562 265.097656 543.019531 262.152344 542.597656 256.675781 C 541.753906 247.621094 537.753906 244.253906 530.382812 245.515625 C 523.015625 246.78125 519.644531 251.621094 520.488281 261.097656 C 521.542969 272.46875 521.753906 278.574219 521.332031 290.996094 C 521.121094 301.3125 524.277344 306.15625 531.648438 304.261719 C 553.964844 298.367188 564.074219 308.683594 554.597656 336.898438 C 550.808594 348.054688 548.492188 353.53125 544.070312 363.214844 C 532.699219 387.851562 517.960938 401.957031 499.222656 413.117188 C 480.484375 424.488281 473.324219 419.011719 481.746094 390.378906 Z M 481.746094 390.378906 " fill-opacity="1" fill-rule="nonzero"/><path fill="#eae2d3" d="M 553.964844 357.53125 C 570.179688 318.367188 576.074219 286.574219 574.390625 244.464844 C 571.230469 217.722656 579.023438 201.300781 598.394531 191.40625 C 617.765625 181.507812 632.292969 188.878906 636.714844 215.617188 C 640.082031 258.570312 634.398438 287.417969 615.027344 325.949219 C 600.710938 348.898438 582.179688 360.058594 563.652344 371.636719 C 544.914062 382.796875 541.964844 381.746094 553.964844 357.53125 Z M 595.023438 234.148438 C 597.339844 276.679688 591.234375 307.417969 573.96875 346.160156 C 569.757812 354.164062 570.8125 355.636719 577.339844 352.058594 C 583.867188 348.476562 589.761719 343.214844 594.183594 335.421875 C 612.5 296.890625 618.394531 266.992188 615.660156 224.25 C 614.394531 215.40625 609.972656 212.460938 603.234375 215.828125 C 596.5 219.199219 593.761719 225.304688 595.023438 234.148438 Z M 595.023438 234.148438 " fill-opacity="1" fill-rule="nonzero"/><path fill="#eae2d3" d="M 625.554688 321.527344 C 645.558594 283.207031 651.242188 254.570312 647.453125 211.617188 C 642.609375 184.878906 648.503906 169.507812 669.769531 164.875 C 691.035156 160.242188 708.722656 171.402344 715.25 198.5625 C 721.566406 242.570312 716.726562 269.097656 693.984375 307.417969 C 677.351562 329.527344 654.820312 336.476562 633.136719 341.320312 C 611.449219 346.160156 610.816406 344.476562 625.554688 321.527344 Z M 669.5625 205.300781 C 673.980469 248.675781 668.507812 276.46875 647.453125 314.789062 C 642.398438 322.367188 643.242188 324.472656 650.820312 323 C 658.402344 321.527344 665.347656 317.738281 670.613281 310.15625 C 692.511719 271.835938 697.5625 244.675781 692.300781 200.878906 C 690.195312 191.824219 685.140625 188.035156 677.773438 189.507812 C 670.402344 190.984375 667.875 196.246094 669.5625 205.300781 Z M 669.5625 205.300781 " fill-opacity="1" fill-rule="nonzero"/><g clip-path="url(#915bb0b000)"><path fill="#eae2d3" d="M 753.359375 256.253906 C 746.414062 287.628906 725.777344 313.316406 699.667969 331.210938 C 690.828125 332.6875 686.40625 333.105469 677.5625 334.371094 C 734.832031 281.519531 741.148438 230.988281 713.144531 159.820312 C 722.621094 159.609375 727.253906 159.820312 736.515625 161.714844 C 757.152344 188.667969 774.417969 220.460938 777.363281 254.992188 C 777.152344 217.933594 772.101562 201.511719 755.046875 168.875 C 762.414062 173.507812 765.574219 176.664062 771.257812 183.402344 C 810 242.148438 803.894531 284.46875 743.042969 320.054688 C 733.988281 323.84375 729.359375 325.316406 720.09375 327.632812 C 745.359375 310.15625 749.148438 284.046875 753.359375 256.253906 Z M 753.359375 256.253906 " fill-opacity="1" fill-rule="nonzero"/></g><g clip-path="url(#f6c84d40d3)"><g clip-path="url(#da85832905)"><g clip-path="url(#911372d957)"><path fill="#eae2d3" d="M 318 480.304688 C 316.140625 484.535156 315.328125 486.746094 313.511719 491.394531 C 304.074219 492.230469 299.261719 492.765625 289.84375 493.8125 C 291.65625 489.164062 292.679688 486.929688 294.5625 482.90625 C 297.84375 476.1875 297.027344 472.675781 289.566406 474.140625 C 282.308594 475.582031 275.613281 480.140625 272.101562 486.671875 C 255.800781 517.296875 247.777344 553.777344 253.519531 588.304688 C 255.285156 596.585938 260.632812 600.863281 268.285156 601.070312 C 275.957031 601.492188 278.257812 597.421875 276.679688 588.910156 C 275.679688 583.726562 275.398438 581.214844 275.214844 575.726562 C 284.703125 575.308594 289.515625 574.773438 299.117188 573.496094 C 299.304688 578.984375 299.582031 581.496094 300.371094 586.703125 C 304.277344 612.328125 302.71875 623.09375 280.675781 621.09375 C 258.632812 619.09375 238.242188 605.257812 232.382812 583.027344 C 225.921875 551.542969 234.269531 517.992188 251.429688 491.300781 C 262.730469 474.792969 287.171875 460.214844 308.167969 454.703125 C 329.1875 449.402344 327.140625 459.585938 318 480.304688 Z M 318 480.304688 " fill-opacity="1" fill-rule="nonzero"/></g></g></g><g clip-path="url(#ca06d0c8cb)"><g clip-path="url(#9c26baaab0)"><g clip-path="url(#9201bdf038)"><path fill="#eae2d3" d="M 312.046875 584.984375 C 308.28125 549.175781 315.839844 512.320312 329.535156 479.234375 C 338.464844 458.542969 362.53125 448.242188 384.199219 448.800781 C 405.871094 449.359375 405.964844 457.824219 398.683594 476.214844 C 387.617188 506.257812 380.246094 539.0625 380.847656 571.199219 C 382.265625 593.496094 378.40625 602.609375 357.082031 609.003906 C 335.761719 615.398438 315.71875 610.421875 312.046875 584.984375 Z M 352.714844 478.144531 C 339.972656 510.277344 332.296875 546.085938 335.109375 580.9375 C 336.015625 589.101562 340.992188 591.9375 348.410156 590.054688 C 355.851562 588.378906 358.546875 584.054688 357.898438 576.289062 C 356.085938 542.808594 363.503906 508.511719 375.503906 477.308594 C 377.96875 470.890625 376.734375 467.425781 369.109375 467.425781 C 361.738281 467.820312 355.578125 471.46875 352.714844 478.144531 Z M 352.714844 478.144531 " fill-opacity="1" fill-rule="nonzero"/></g></g></g><g clip-path="url(#fe21bf3b18)"><g clip-path="url(#8607a13c11)"><g clip-path="url(#f6e77e395f)"><path fill="#eae2d3" d="M 421.144531 518.210938 C 415.796875 538.71875 411.421875 569.921875 421.722656 590.171875 C 413.074219 592.40625 408.75 593.519531 400.121094 595.960938 C 378.941406 557.851562 399.59375 478.65625 427.867188 449.035156 C 437.144531 448.640625 441.773438 448.339844 450.957031 447.105469 C 440.65625 464.988281 443.492188 479.078125 445.140625 511.09375 C 458.488281 482.496094 469.09375 461.617188 488.367188 436.808594 C 496.648438 433.132812 500.601562 430.578125 508.25 425.066406 C 488.25 462.453125 475.484375 540.136719 486.898438 581.875 C 478.039062 582.222656 473.808594 582.269531 464.996094 583.035156 C 456.71875 560.015625 463.625 532.558594 467.230469 509.699219 C 458.160156 532.953125 445.023438 559.621094 445.136719 585.453125 C 443.882812 585.59375 443.253906 585.664062 441.8125 586.035156 C 423.445312 569.433594 422.839844 550.644531 421.144531 518.210938 Z M 421.144531 518.210938 " fill-opacity="1" fill-rule="nonzero"/></g></g></g><g clip-path="url(#d066a978e4)"><g clip-path="url(#d5687e616e)"><g clip-path="url(#4c96f10596)"><path fill="#eae2d3" d="M 520.125 581.574219 C 511.21875 581.503906 506.964844 581.339844 498.082031 581.480469 C 487.039062 537.371094 498.4375 458.78125 516.808594 418.183594 C 523.386719 412.582031 526.640625 409.464844 532.96875 403.464844 C 521.152344 455.410156 508.917969 528.375 520.125 581.574219 Z M 520.125 581.574219 " fill-opacity="1" fill-rule="nonzero"/></g></g></g><g clip-path="url(#3d55c2e571)"><g clip-path="url(#9b18ab4c7a)"><g clip-path="url(#7928a9eead)"><path fill="#eae2d3" d="M 553.75 483.777344 C 551.867188 516.402344 547.75 549.90625 553.027344 582.15625 C 544.332031 582.0625 539.867188 581.921875 530.9375 581.644531 C 521.660156 530.558594 527.082031 445.855469 540.804688 395.816406 C 547.734375 389.539062 551.429688 386.585938 558.871094 381.097656 C 560.402344 412.070312 570.425781 443.160156 575.933594 473.6875 C 576.144531 439.34375 572.472656 404.375 575.660156 370.125 C 583.238281 365.894531 587.027344 363.777344 594.910156 360.359375 C 592.210938 431.417969 590.441406 510.84375 596.390625 581.578125 C 587.113281 581.972656 582.464844 582.066406 572.929688 582.066406 C 561.234375 551.164062 557.84375 516.796875 553.75 483.777344 Z M 553.75 483.777344 " fill-opacity="1" fill-rule="nonzero"/></g></g></g><g clip-path="url(#87188ebb10)"><g clip-path="url(#ee0c0d0bbe)"><g clip-path="url(#b595e6b454)"><path fill="#eae2d3" d="M 674.292969 388.40625 C 675.40625 394.636719 675.757812 397.773438 676.5 404.472656 C 667.292969 405.496094 662.710938 406.214844 653.550781 407.65625 C 652.808594 400.960938 652.433594 397.613281 651.527344 391.355469 C 649.949219 380.941406 645.808594 376.101562 638.53125 377.335938 C 631.066406 378.800781 627.71875 384.890625 629.089844 395.332031 C 635.320312 441.882812 632.644531 488.363281 629.78125 535.074219 C 629.085938 545.957031 632.734375 550.210938 639.988281 548.769531 C 647.242188 547.328125 651.265625 541.585938 652.195312 530.890625 C 653.847656 511.429688 654.988281 500.710938 655.757812 479.015625 C 651.199219 479.945312 648.898438 480.203125 644.128906 481.15625 C 644.621094 466.484375 644.851562 459.042969 644.296875 444.488281 C 658.222656 442.09375 665.082031 440.90625 679.054688 438.929688 C 678.914062 468.183594 678.054688 496.664062 674.285156 525.683594 C 670.796875 557.210938 660.242188 572.789062 639.3125 577.023438 C 618.386719 581.253906 605.738281 570.371094 607.066406 538.445312 C 609.601562 492.617188 611.929688 446.8125 606.839844 400.980469 C 603.445312 370.429688 614.933594 351.78125 636.277344 347.503906 C 657.621094 343.226562 669.363281 357.386719 674.292969 388.40625 Z M 674.292969 388.40625 " fill-opacity="1" fill-rule="nonzero"/></g></g></g><g clip-path="url(#c0741d3999)"><g clip-path="url(#11db822666)"><g clip-path="url(#2084b1b93f)"><path fill="#eae2d3" d="M 706.492188 514.269531 C 707.539062 508.433594 708.050781 505.410156 709.050781 499.152344 C 717.582031 495.875 721.628906 494.15625 729.882812 490.273438 C 728.628906 496.132812 728.117188 499.15625 726.8125 504.597656 C 724.671875 513.941406 726.835938 516.246094 733.160156 512.152344 C 739.484375 508.0625 743.902344 502.0625 746.507812 493.085938 C 749.554688 482.367188 751.042969 476.695312 753.113281 464.8125 C 754.972656 454.863281 752.066406 451.582031 744.996094 454.699219 C 724.023438 464.230469 715.28125 448.464844 712.515625 415.9375 C 711.496094 402.914062 710.585938 396.660156 708.449219 385.035156 C 702.871094 355.785156 712.636719 344.53125 733.679688 339.4375 C 754.722656 334.347656 766.605469 338.324219 772.484375 364.574219 C 773.695312 369.738281 774.230469 372.644531 775.066406 378.269531 C 767.089844 382.757812 763.113281 385.105469 754.605469 388.59375 C 753.765625 382.96875 753.230469 380.058594 752.210938 374.667969 C 750.371094 365.761719 746.023438 362.855469 738.839844 364.921875 C 731.65625 366.992188 728.839844 372.175781 730.722656 381.5 C 733.027344 392.683594 733.910156 398.730469 734.863281 411.125 C 735.792969 421.402344 739.464844 425.867188 746.582031 423.167969 C 768.113281 414.847656 779.296875 423.984375 772.992188 453.070312 C 770.457031 464.582031 768.761719 470.277344 765.433594 480.390625 C 756.855469 506.132812 743.761719 521.78125 726.371094 534.9375 C 709 548.308594 701.28125 543.65625 706.492188 514.269531 Z M 706.492188 514.269531 " fill-opacity="1" fill-rule="nonzero"/></g></g></g><g clip-path="url(#e7e214fd61)"><g clip-path="url(#5e4bbd1923)"><g clip-path="url(#fe2967f37e)"><path fill="#eae2d3" d="M 774.644531 473.648438 C 786.433594 432.9375 788.785156 400.6875 782.460938 359.019531 C 776.371094 332.789062 782.300781 315.609375 800.460938 303.632812 C 818.621094 291.660156 833.871094 297.378906 841.21875 323.46875 C 849.308594 365.789062 846.84375 395.085938 831.84375 435.519531 C 820.148438 459.910156 802.964844 473.046875 785.828125 486.601562 C 768.433594 499.761719 765.386719 499.039062 774.644531 473.648438 Z M 801.828125 346.488281 C 808.828125 388.503906 806.152344 419.730469 793.269531 460.140625 C 789.964844 468.558594 791.175781 469.90625 797.265625 465.628906 C 803.359375 461.351562 808.636719 455.46875 812.171875 447.238281 C 826.125 406.917969 828.683594 376.550781 821.246094 334.375 C 819.011719 325.722656 814.292969 323.28125 807.96875 327.375 C 801.644531 331.464844 799.597656 337.835938 801.828125 346.488281 Z M 801.828125 346.488281 " fill-opacity="1" fill-rule="nonzero"/></g></g></g><g clip-path="url(#4aa26d27fb)"><g clip-path="url(#d921f5b021)"><g clip-path="url(#dc5cb7a622)"><path fill="#eae2d3" d="M -14.003906 282.503906 C -10.863281 277.472656 -9.265625 274.855469 -6.015625 269.417969 C 3.125 269.542969 7.519531 269.449219 16.625 268.90625 C 13.285156 273.882812 11.6875 276.5 8.457031 281.066406 C 3 288.953125 4.152344 291.890625 11.546875 290.441406 C 18.9375 288.988281 25.265625 285.058594 31.019531 277.691406 C 37.828125 268.871094 41.316406 264.15625 47.648438 253.894531 C 53.070312 245.34375 51.589844 241.21875 43.871094 241.488281 C 20.855469 242.550781 18.59375 224.667969 28.101562 193.4375 C 31.988281 180.96875 33.46875 174.824219 35.796875 163.234375 C 41.480469 134.003906 54.726562 127.179688 76.152344 130.265625 C 97.582031 133.351562 107.140625 141.453125 102.855469 168.011719 C 102.058594 173.253906 101.476562 176.152344 100.164062 181.6875 C 91.09375 182.894531 86.527344 183.597656 77.332031 183.675781 C 78.644531 178.140625 79.226562 175.242188 80.28125 169.855469 C 81.882812 160.902344 78.921875 156.589844 71.484375 155.84375 C 64.042969 155.097656 59.507812 158.867188 57.792969 168.222656 C 55.777344 179.460938 54.351562 185.402344 50.636719 197.265625 C 47.683594 207.152344 49.4375 212.664062 57.046875 212.800781 C 80.128906 213.066406 87.121094 225.703125 70.46875 250.371094 C 63.839844 260.117188 60.148438 264.777344 53.304688 272.933594 C 35.78125 293.648438 17.816406 303.316406 -3.21875 309.078125 C -24.3125 315.042969 -29.753906 307.855469 -14.003906 282.503906 Z M -14.003906 282.503906 " fill-opacity="1" fill-rule="nonzero"/></g></g></g><g clip-path="url(#ae9e3c312a)"><g clip-path="url(#187b834b8e)"><g clip-path="url(#1812e9812d)"><path fill="#eae2d3" d="M 64.359375 270.089844 C 90.421875 236.667969 104.578125 207.59375 114.179688 166.558594 C 118.261719 139.941406 130.148438 126.191406 151.457031 121.8125 C 172.761719 117.4375 184.800781 128.414062 181.9375 155.367188 C 173.734375 197.664062 160.566406 223.949219 131.628906 255.925781 C 111.710938 274.230469 90.878906 280.046875 69.933594 286.269531 C 48.898438 292.03125 46.339844 290.230469 64.359375 270.089844 Z M 136.816406 162.113281 C 127.714844 203.722656 113.636719 231.726562 86.667969 264.464844 C 80.476562 271.054688 81.097656 272.753906 88.34375 271.042969 C 95.589844 269.332031 102.675781 265.832031 109.011719 259.5 C 136.9375 227.246094 150.589844 200 159.34375 158.074219 C 160.480469 149.214844 157.003906 145.195312 149.613281 146.644531 C 142.222656 148.097656 137.957031 153.253906 136.816406 162.113281 Z M 136.816406 162.113281 " fill-opacity="1" fill-rule="nonzero"/></g></g></g><g clip-path="url(#7febe46166)"><g clip-path="url(#b0898afc1e)"><g clip-path="url(#ef1605795d)"><path fill="#eae2d3" d="M 142.953125 254.46875 C 172.445312 222.867188 185.558594 196.78125 193.351562 154.371094 C 195.8125 127.308594 205.589844 114.066406 227.320312 115.269531 C 249.054688 116.472656 263.125 131.941406 262.175781 159.859375 C 256.539062 203.957031 244.800781 228.234375 212.667969 259.109375 C 190.746094 275.984375 167.179688 276.675781 144.984375 275.566406 C 122.792969 274.453125 122.632812 272.660156 142.953125 254.46875 Z M 216.34375 154.175781 C 209.046875 197.160156 196.363281 222.488281 165.855469 253.8125 C 158.964844 259.769531 159.214844 262.023438 166.914062 262.625 C 174.613281 263.222656 182.320312 261.421875 189.414062 255.519531 C 220.730469 224.421875 232.839844 199.589844 239.441406 155.972656 C 239.824219 146.6875 235.964844 141.6875 228.46875 141.144531 C 220.972656 140.601562 217.132812 145 216.34375 154.175781 Z M 216.34375 154.175781 " fill-opacity="1" fill-rule="nonzero"/></g></g></g><g clip-path="url(#693d859f44)"><g clip-path="url(#f2863c6163)"><g clip-path="url(#6cc3ed1ee0)"><path fill="#eae2d3" d="M 283.535156 225.621094 C 268.476562 254.007812 241.742188 273.265625 211.808594 283.558594 C 202.890625 282.621094 198.515625 281.847656 189.65625 280.707031 C 258.941406 245.035156 278.496094 198.011719 270.472656 121.957031 C 279.660156 124.28125 284.070312 125.71875 292.496094 130.011719 C 305.199219 161.488281 313.367188 196.734375 307.003906 230.800781 C 316.679688 195.027344 316.183594 177.851562 308.445312 141.851562 C 314.3125 148.28125 316.515625 152.164062 320.199219 160.175781 C 341.882812 227.121094 324.71875 266.28125 256.585938 284.363281 C 246.851562 285.601562 241.992188 285.789062 232.445312 285.550781 C 261.457031 275.441406 272.066406 251.285156 283.535156 225.621094 Z M 283.535156 225.621094 " fill-opacity="1" fill-rule="nonzero"/></g></g></g></svg>