<svg width="49" height="49" viewBox="0 0 49 49" fill="none" xmlns="http://www.w3.org/2000/svg">
<path d="M14.21 0H34.79C42.6378 0 49 6.36204 49 14.21V34.79C49 42.6381 42.6378 49 34.79 49H14.21C6.36204 49 0 42.6381 0 34.79V14.21C0 6.36204 6.36204 0 14.21 0ZM13.72 4.89996C8.84884 4.89996 4.9 8.84882 4.9 13.72V35.28C4.9 40.1511 8.84884 44.1 13.72 44.1H35.28C40.1511 44.1 44.1 40.1511 44.1 35.28V13.72C44.1 8.84882 40.1511 4.89996 35.28 4.89996H13.72ZM37.3625 8.57496C39.054 8.57496 40.425 9.9461 40.425 11.6375C40.425 13.3288 39.054 14.7 37.3625 14.7C35.671 14.7 34.3 13.3288 34.3 11.6375C34.3 9.9461 35.671 8.57496 37.3625 8.57496ZM24.5 12.25C31.2654 12.25 36.75 17.7345 36.75 24.5C36.75 31.2654 31.2654 36.75 24.5 36.75C17.7345 36.75 12.25 31.2654 12.25 24.5C12.25 17.7345 17.7345 12.25 24.5 12.25ZM24.5 17.15C20.4406 17.15 17.15 20.4408 17.15 24.5C17.15 28.5594 20.4406 31.85 24.5 31.85C28.5594 31.85 31.85 28.5594 31.85 24.5C31.85 20.4408 28.5594 17.15 24.5 17.15Z" fill="#76554e"/>
</svg>
