<?xml version="1.0" encoding="UTF-8"?>
<svg id="Layer_1" data-name="Layer 1" xmlns="http://www.w3.org/2000/svg" viewBox="0 0 747.95 751.44">
  <defs>
    <style>
      .cls-1 {
        fill: #eae1d2;
      }
    </style>
  </defs>
  <g>
    <path class="cls-1" d="m88.03,357.83c15.81-2.25,33.69-2.93,48.81,2.52,11.4,4.11,22.84,10.25,30.78,20.65,7.89,10.32,13.19,22.8,16.08,35.55,3.64,16.06,5.47,32.61,6.38,48.74.99,17.67,2.09,37.57-4.36,54.38-4.24,11.04-11.24,16.89-20.41,17.58,12.62,5.6,22.09,16.96,29.27,28.39,10,15.89,16.21,34.35,18.99,52.87,2.61,17.36,5.36,34.84,5.65,52.39.22,13.14-1.72,22.65-5.58,28.41-3.86,5.77-10.02,8.04-18.33,6.53-11.6-2.11-22.2-8.73-31.78-14.79-11.49-7.27-22.4-16.49-32.7-25.79-8.82-7.96-17.43-16.31-25.83-24.67-7.73-7.69-15.47-15.61-22.81-23.65-7.32-8.01-14.56-16.65-20.75-25.63-28.03-42.11-47.21-86.24-58.87-135.48-2.52-10.44-3.35-23.14-1.71-33.77,1.5-9.73,5.45-18.97,11.6-27.17,6.69-8.91,17.63-17.41,27.47-22.31,15.19-7.56,31.96-12.46,48.11-14.75Zm11.79,141.71c6.06.48,10.75-2.07,14.23-8,3.47-5.92,4.68-13.51,3.57-22.7-1.27-10.55-4.44-19.39-9.69-26.12-5.25-6.73-11.09-9.97-17.48-9.75-6.39.23-11.62,3.84-15.5,10.43-3.89,6.59-5.02,14.73-3.39,24.47,1.43,8.48,5.06,15.58,10.7,21.69,5.65,6.12,11.49,9.49,17.55,9.98Zm30.81,114.9c5.17,1.82,8.68.63,10.74-3.84,2.06-4.46,2.03-10.92-.21-19.26-2.57-9.57-6.54-18.04-12.15-25.03-5.61-6.99-11.32-11-17.01-12.1-5.7-1.1-9.85.98-12.22,5.86-2.38,4.88-1.95,11.66,1.22,20.42,2.76,7.63,7.2,14.59,13.09,21.2,5.9,6.62,11.36,10.93,16.54,12.75Z"/>
    <path class="cls-1" d="m335.56,751.24c-13.17-1.3-25.31-7.66-35.61-14.95-13.6-9.63-23.87-24.46-32.91-38.74-12.45-19.67-21.28-42.28-28.8-64.47-10.25-30.25-15.91-62.57-18.61-94.01-2.11-24.55-2.04-50.41,3.76-74.56,4.57-19.02,11.27-38.5,22.47-54.99,8.8-12.96,21.26-26.19,35.01-31.24,15.23-5.59,27.31-5.55,43.37-1.16,15.56,4.25,29.28,15.57,41.04,26.95,13.27,12.84,24.67,29.26,33.6,45.99,10.04,18.81,17.85,38.82,23.06,58.9,5.81,22.35,8.24,45.97,8.04,69.16-.23,26.87-2.31,55.32-9.53,81.66-5.08,18.56-11.34,36.83-21.42,53.5-7.24,11.98-17.17,22.91-29.1,30.09-9.3,5.61-23.68,8.92-34.41,7.87Zm-9.36-167.02c10.08,1.93,18.7-1.3,25.58-9.91,7.92-9.92,10.43-23.21,10.24-35.6-.22-14.49-3.53-30.1-11.26-41.78-6.31-9.53-14.48-19.79-26.81-22.94-10.23-2.61-19.4.42-26.69,9.41-8.55,10.54-10.84,25.06-10.31,38.28.58,14.63,5.28,29.53,12.72,41.78,5.19,8.54,16.1,18.77,26.54,20.76Z"/>
    <path class="cls-1" d="m451.5,494.03c.18-11.39.22-22.86,1.82-34.16,1.22-8.61,3.81-15.06,7.8-19.32,3.99-4.26,9.63-6.73,17.03-7.79,7.4-1.05,17.26-1.3,29.37-.72,13.09.63,23.54,1.43,31.32,2.56,7.78,1.13,13.91,3.24,18.34,6.35,4.44,3.11,7.81,7.61,10.05,13.48,2.24,5.87,4.33,13.74,6.13,23.42,2.57,13.8,5.18,22.46,8.2,26.36,3.02,3.9,7.82,5.2,14.11,4.42,6.23-.78,11.41-3.15,15.12-7.41,3.7-4.25,7.58-13.48,11.89-26.51,3-9.05,6.37-16.66,9.31-22.33,2.95-5.67,6.84-10.11,11.73-13.32,4.89-3.2,11.54-5.5,19.75-6.72,10.89-1.62,22.12-2.63,32.99-4.87,11.02-2.27,19.7-4.44,26.17-5.59,6.47-1.15,11.24-.71,14.31,1.6,3.07,2.32,4.76,6.5,4.94,12.56.18,6.07-.75,14.44-3.17,24.96-14.7,58.64-40.36,110.13-78.25,157.19-7.95,9.49-14.97,16.66-20.33,22.02-5.35,5.36-12.35,12.23-21.63,20.01-5.48,4.6-9.76,7.82-12.73,9.78-2.98,1.96-4.9,2.76-5.74,2.42-.84-.35-.6-1.94.73-4.78,1.33-2.84,3.49-6.88,6.43-12.18,11.82-21.09,21.23-43.25,29.73-65.84,1.25-3.48,1.26-5.87.04-7.18-1.22-1.31-3.01-1.63-5.29-.95-2.29.68-4.75,2.23-7.38,4.65-2.62,2.43-4.74,5.43-6.39,8.98-9.47,21.33-19.39,42.43-30.29,63.07-4.84,9.15-9.03,16.38-12.44,21.86-3.41,5.49-6.52,9.85-9.27,13.14-2.76,3.29-5.4,5.88-7.96,7.75-2.56,1.87-5.54,3.72-8.99,5.51-3.29,1.7-5.94,2.76-7.95,3.2-2.01.44-3.35-.28-4.06-2.22-.71-1.93-.85-5.23-.49-10.01.37-4.77,1.32-11.65,2.68-20.89,2.65-20.88,4.29-41.67,5.2-62.71.03-4.15-.95-7.06-2.95-8.7-2-1.64-4.3-2.21-6.84-1.67-2.55.54-4.95,2.05-7.2,4.57-2.25,2.52-3.63,5.98-4.19,10.36-3.51,26.02-7.73,51.83-12.83,77.59-2.58,12.5-6.35,21.08-10.92,26.32-4.57,5.24-13.42,10.22-27.1,13.89-12.59,3.38-20.68,2.92-24.07-.69-3.39-3.6-4.65-12.03-3.72-25.64,4.72-71.87,6.74-143.8,6.97-215.82Z"/>
  </g>
  <g>
    <path class="cls-1" d="m45.89,311.04c2.13-20.46,5.25-40.48,9.51-60.6,3.87-17.02,5.92-26.54,4.88-29.17-1.04-2.62-5.92-1.9-14.46,2.68-6.22,3.34-10.71,5.29-13.49,5.65-2.79.36-4.1-1.2-3.85-4.7.24-3.49,2.14-9.37,5.88-17.45,5.01-10.81,11.08-21.05,17.21-31.28,6.3-10.15,13.25-20.13,20.58-29.57,7.14-9.28,13.32-16.38,18.09-21.66,4.76-5.27,9.25-9.9,13.29-13.98,4.04-4.07,8.08-8.06,12.21-11.9,4.12-3.84,9.46-8.68,16.26-14.26,24.2-19.12,49.15-35.02,76.71-48.87,8.02-3.84,14.3-6.27,18.74-7.56,4.43-1.29,7.39-.88,8.88,1.17,1.5,2.06,1.71,6,.6,11.89-1.1,5.9-3.04,14.37-5.7,25.76-2.81,11.95-5.34,24.01-7.61,36.07-2.41,12.81-4.73,25.66-7.29,38.42-2.03,10.12-4.37,18.17-7.1,23.91-2.74,5.74-6.24,9.85-10.54,12.32-4.3,2.47-9.95,4.07-16.9,4.97-9.9,1.28-16.65,4.41-18.97,8.62-5.31,9.59-6.75,22.6-8.07,34.17-2.52,22.1-4.31,44.14-5.44,66.35-.58,13.66-1.29,24.54-2.48,32.31-1.19,7.79-3.64,13.67-7.44,17.55-3.81,3.88-9.19,6.3-16.14,7.49-6.96,1.19-16.24,2.24-27.69,3.71-12.57,1.62-22.22,3.17-29.15,3.97-6.93.8-11.98.04-15.2-2.56-3.22-2.59-5.21-7.38-5.81-14.28-.6-6.89-.61-16.68.51-29.18Z"/>
    <path class="cls-1" d="m279.35,66.29c6.79-17.17,13.7-36.27,26.84-49.8,9.82-10.11,23.61-15.35,37.5-16.29,8.15-.55,15.09.06,20.75,1.83,5.65,1.77,10.64,5.03,14.92,9.79,4.29,4.77,8.08,11.6,11.41,20.63,4.21,11.42,7.27,23.18,10.39,34.93,24.34,96.95,46.45,194.37,63.44,292.91,1.76,11.58,3.72,23.24,4.13,34.94.29,8.05-1.38,13.81-4.85,17.17-3.48,3.36-9.23,4.71-17.14,3.69-10.75-1.39-21.89-4.25-32.13-7.46-8.28-2.6-14.97-5.02-19.89-7.14-4.93-2.11-8.82-4.86-11.69-8.18-2.86-3.31-5.15-7.76-6.87-13.4-1.73-5.66-3.67-13.26-5.88-22.77-3.91-16.52-7.87-33.07-16.24-47.87-6.29-11.14-13.04-17.47-19.85-19.16-6.81-1.7-13.9,1.22-20.79,8.59-9.23,9.88-14.86,23.26-19.02,36.1-2.64,7.55-5.03,13.29-7.19,17.23-2.16,3.95-4.95,6.58-7.94,8.25-3,1.68-6.84,2.24-11.52,1.74-4.69-.5-10.94-1.46-18.79-2.75-12.2-2-24.48-3.87-36.64-6-8.59-1.51-14.56-3.9-17.78-7.29-3.22-3.39-4.38-8.26-3.41-14.71.98-6.44,3.07-15.61,6.44-27.43,23.59-80.44,52.52-159.07,81.82-237.57Zm57.94,130.11c9.3,1.49,17.37-1.09,24.17-8.05,6.78-6.94,9.96-16.6,10.33-27.93.34-10.44-3.11-24.43-9.43-33.04-6.39-8.7-13.9-13.57-22.77-14.24-8.61-.65-16.17,2.85-22.86,10.25-6.69,7.4-10.46,17.08-11.07,29.27-.54,10.81,2.31,20.29,8.58,28.74,6.29,8.47,14.01,13.55,23.04,15Z"/>
    <path class="cls-1" d="m492.3,358.28c3.1-98.72-.58-197.22-13.36-295.2-1.14-11.71-4.37-29.62,2.97-37.24,7.04-7.3,20.93-2.69,30.94.87,10.41,3.7,19.09,10.1,25.67,16.68,6.57,6.57,12.42,14.74,17.37,24.63,12.36,24.69,24.19,49.62,35.67,74.74,3.26,6.59,6.86,11.68,10.85,15.24,3.99,3.56,7.59,5.57,10.76,6.11,3.16.54,5.43-.71,6.69-3.65,1.26-2.93.84-7.43-1.27-13.5-4.7-13.51-9.87-26.86-15.54-40-4.02-9.32-7.28-16.65-9.62-22.14-2.34-5.49-3.31-9.03-2.9-10.63.42-1.61,2.3-1.52,5.66.33,3.35,1.85,8.41,5.43,15,10.89,9.72,8.07,18.86,16.92,27.75,25.9,10.08,10.2,19.99,20.73,28.84,32.06,47.61,63.01,74.19,133.88,79.97,212.64.9,14.08-1.04,29.45-8.97,41.12-7.99,11.76-22.13,19-35.85,22.25-13.5,3.2-28.89,3.59-41.41-2.76-8.88-4.5-14.35-12.73-16.54-23.93-5.77-28.53-12.59-56.68-20.32-84.74-2.37-7.1-5.65-12.37-9.74-15.87-4.09-3.5-8.05-5.12-11.87-4.79-3.83.33-7.06,2.57-9.75,6.76-2.69,4.19-3.9,10.08-3.66,17.63.44,17.75.54,35.45.32,53.2-.8,16.19-.55,37.28-10.48,49.78-7.8,9.82-24.68,11.11-36.99,10.6-11.48-.47-20.92-1.6-27.91-3.64-6.99-2.04-12.23-5.44-15.72-10.14-3.49-4.7-5.57-11.42-6.26-20.09-.87-10.92-.77-22.18-.27-33.12Z"/>
  </g>
</svg>